<?xml version="1.0" encoding="UTF-8"?>
<svg version="1.1" xmlns="http://www.w3.org/2000/svg" width="512" height="512">
<path d="M0 0 C0.74121094 -0.0309375 1.48242188 -0.061875 2.24609375 -0.09375 C7.89898452 1.35522032 10.99076993 7.28907013 13.875 12 C14.28741943 12.66870117 14.69983887 13.33740234 15.12475586 14.02636719 C55.5147314 80.54761978 55.5147314 80.54761978 49.375 107.5 C46.85624195 116.68052001 42.53915569 124.14727581 36.5625 131.5 C37.08199219 131.71269531 37.60148437 131.92539063 38.13671875 132.14453125 C41.586424 134.07214433 44.40276751 136.59888323 47.375 139.1875 C48.00301514 139.73204834 48.63103027 140.27659668 49.27807617 140.83764648 C57.25165928 147.79548652 63.99429944 155.18470233 70.5625 163.5 C71.30757813 164.428125 72.05265625 165.35625 72.8203125 166.3125 C84.10680202 180.78437506 93.79681916 198.11001828 96.5625 216.5 C96.72685547 217.5828125 96.72685547 217.5828125 96.89453125 218.6875 C97.19019639 220.95820825 97.39852983 223.21612983 97.5625 225.5 C97.61664063 226.22316406 97.67078125 226.94632813 97.7265625 227.69140625 C98.33904084 244.14480176 93.83929559 261.27332314 82.5625 273.5 C75.39817124 280.91838297 65.5967668 285.94710287 55.22547913 286.66082764 C52.83474682 286.69544286 50.45289786 286.67561103 48.0625 286.625 C47.24007813 286.61597656 46.41765625 286.60695313 45.5703125 286.59765625 C43.56757917 286.57436865 41.56499846 286.53850959 39.5625 286.5 C39.57249275 287.59252579 39.57249275 287.59252579 39.58268738 288.7071228 C41.17598358 471.73314552 41.17598358 471.73314552 12.40625 507.6953125 C8.51752381 511.50165042 5.18414538 512.95566883 -0.25 513.0625 C-5.49970451 512.91416683 -8.55833677 511.86576905 -12.62109375 508.59375 C-36.12952984 481.49585377 -35.48415584 428.46401081 -38.125 394.375 C-38.18593842 393.5900415 -38.24687683 392.80508301 -38.30966187 391.99633789 C-39.89600569 371.22786886 -40.58337449 350.44607262 -41 329.625 C-41.0433752 327.55728652 -41.08699406 325.48957814 -41.13085938 323.421875 C-41.23586374 318.44797055 -41.33763446 313.47401017 -41.4375 308.5 C-43.35188353 310.2299306 -45.26276989 311.96347907 -47.171875 313.69921875 C-47.7086084 314.1835437 -48.2453418 314.66786865 -48.79833984 315.16687012 C-65.71317582 330.57744778 -76.90521596 353.52264549 -78.65808105 376.37585449 C-78.97936041 383.74657616 -78.95843681 391.1236324 -78.9375 398.5 C-78.84940814 429.53615482 -84.2757589 454.65697572 -106.4375 477.5 C-107.03691406 478.17289062 -107.63632812 478.84578125 -108.25390625 479.5390625 C-123.04146229 495.57222261 -146.30199556 505.41586215 -167.9152832 506.64038086 C-212.47995297 508.22534162 -254.65984508 487.64372092 -287 457.625 C-287.95390625 456.72394531 -288.9078125 455.82289063 -289.890625 454.89453125 C-291.96015535 452.94879182 -294.0561913 451.11317042 -296.25 449.3125 C-300.07460351 446.06710327 -303.22004456 442.33494689 -306.4375 438.5 C-307.18902344 437.63632812 -307.94054687 436.77265625 -308.71484375 435.8828125 C-319.62045419 423.16821455 -328.69203314 409.34028682 -336.4375 394.5 C-336.80584961 393.80132812 -337.17419922 393.10265625 -337.55371094 392.3828125 C-349.23869384 369.92494423 -362.58105129 338.36327039 -359.4375 312.5 C-357.64103146 309.56576805 -356.4933929 308.02794645 -353.4375 306.5 C-348.78641391 305.86036144 -345.48230143 305.81087565 -341.5 308.4375 C-339.64098749 311.19785191 -339.07537243 312.38911586 -338.4453125 315.48828125 C-338.2800708 316.2862915 -338.1148291 317.08430176 -337.94458008 317.90649414 C-337.42436078 320.56720169 -336.90792504 323.22859188 -336.39453125 325.890625 C-326.11005088 379.11247097 -297.57919418 426.21366142 -252.36523438 456.90673828 C-247.808683 459.9200473 -243.15669208 462.74984598 -238.4375 465.5 C-237.53813721 466.03101318 -237.53813721 466.03101318 -236.62060547 466.57275391 C-213.18386862 480.26721133 -185.246828 489.56091166 -158.0625 483 C-145.47537516 479.33735302 -134.14387742 473.3552585 -124.4375 464.5 C-123.52484375 463.72462891 -123.52484375 463.72462891 -122.59375 462.93359375 C-110.75524833 452.19822519 -102.39164983 434.79097655 -101.25117493 418.90455627 C-101.1784994 416.06394713 -101.16118486 413.22824596 -101.1640625 410.38671875 C-101.14374883 408.22851067 -101.12289764 406.0703076 -101.1015625 403.91210938 C-101.07916557 400.56693281 -101.06256098 397.2219566 -101.05664062 393.87670898 C-100.94908934 357.6991468 -91.36678425 326.65461695 -65.75 300.375 C-49.68275876 284.40306617 -49.68275876 284.40306617 -40.4375 282.5 C-40.48970703 280.59347656 -40.48970703 280.59347656 -40.54296875 278.6484375 C-41.36416994 232.36788445 -36.7540438 184.64671003 -26.4375 139.5 C-27.07816406 139.02691406 -27.71882813 138.55382812 -28.37890625 138.06640625 C-37.72213181 130.92322486 -46.30050707 121.80304256 -49.0234375 109.94921875 C-51.32173254 105.96847016 -55.06768499 105.10724813 -59.25 103.5625 C-60.14074219 103.22186523 -61.03148437 102.88123047 -61.94921875 102.53027344 C-113.16488164 83.39613047 -169.82259527 81.66854597 -220.3671875 104.078125 C-231.28262136 109.08199061 -241.64421421 114.53699885 -251.4375 121.5 C-252.44554687 122.21671875 -253.45359375 122.9334375 -254.4921875 123.671875 C-271.6909859 136.26943643 -286.77220229 150.32630325 -299.4375 167.5 C-300.21996094 168.56089844 -301.00242187 169.62179688 -301.80859375 170.71484375 C-316.31913113 191.05977398 -325.9482533 213.22331059 -333.20996094 237.03271484 C-333.46165039 237.83402832 -333.71333984 238.6353418 -333.97265625 239.4609375 C-334.19187744 240.17556152 -334.41109863 240.89018555 -334.63696289 241.62646484 C-336.10737917 245.06775015 -338.06034842 246.12412343 -341.4375 247.5 C-344.64266944 247.76153292 -347.37873168 247.50602076 -350.4375 246.5 C-353.801411 243.4724801 -354.99428428 240.94430011 -355.4375 236.5 C-354.90380125 233.58361341 -354.28667074 230.84688735 -353.5 228 C-353.27256104 227.16758789 -353.04512207 226.33517578 -352.81079102 225.47753906 C-346.01672074 201.45524771 -335.15411696 178.68871116 -320.4375 158.5 C-320.03321777 157.9416748 -319.62893555 157.38334961 -319.21240234 156.80810547 C-313.17106892 148.53509439 -306.5315219 140.88799196 -299.4375 133.5 C-298.90108887 132.93635742 -298.36467773 132.37271484 -297.81201172 131.79199219 C-284.46507809 117.83224815 -269.72297779 106.83233551 -253.4375 96.5 C-252.83470215 96.11714844 -252.2319043 95.73429687 -251.61083984 95.33984375 C-220.66403471 75.98804867 -183.57531484 67.02276507 -147.4375 65.5 C-145.94283203 65.43619141 -145.94283203 65.43619141 -144.41796875 65.37109375 C-112.26147581 64.72538104 -77.59193192 70.63728588 -48.4375 84.5 C-48.34597656 83.52933594 -48.25445312 82.55867188 -48.16015625 81.55859375 C-47.48874113 76.90539506 -45.7437182 72.84974036 -43.875 68.5625 C-43.33601074 67.3091687 -43.33601074 67.3091687 -42.78613281 66.03051758 C-39.30300315 58.02616393 -35.50732952 50.22068117 -31.4375 42.5 C-30.99390137 41.6553418 -30.55030273 40.81068359 -30.09326172 39.94042969 C-24.86308498 30.03304644 -19.47870949 20.25208257 -13.4375 10.8125 C-12.99301514 10.1119751 -12.54853027 9.4114502 -12.09057617 8.68969727 C-8.88946551 3.802118 -6.27642505 0.08702149 0 0 Z M-0.4375 31.5 C-13.25683549 49.79828436 -31.58621006 78.40893277 -29.4375 101.5 C-27.50951738 109.11277708 -23.81703122 115.44489102 -17.33203125 119.96875 C-9.2390751 124.76044865 -1.73023947 126.65096693 7.5625 124.5 C16.13403384 121.41219782 22.8611043 116.44220129 26.9375 108.1875 C32.01233438 95.10325309 27.40197683 84.37009201 22.0625 72.125 C15.83111457 58.2267742 8.9824138 44.21212562 0.5625 31.5 C0.2325 31.5 -0.0975 31.5 -0.4375 31.5 Z M-5.4375 145.5 C-8.42999251 155.86078193 -10.53866123 166.08467924 -12.0625 176.75 C-12.27609222 178.20665275 -12.48988007 179.66327682 -12.70385742 181.11987305 C-15.8805084 202.71415241 -15.8805084 202.71415241 -16.4375 224.5 C-5.62401533 225.24221384 4.76440462 225.6689999 15.5625 224.5 C15.83486748 215.04111467 15.01604143 205.8115292 13.875 196.4375 C13.74402924 195.33722473 13.74402924 195.33722473 13.6104126 194.21472168 C10.98383262 169.42210512 10.98383262 169.42210512 4.5625 145.5 C1.2625 145.5 -2.0375 145.5 -5.4375 145.5 Z M27.5625 151.5 C27.72854736 152.54414063 27.89459473 153.58828125 28.06567383 154.6640625 C32.92920811 185.40958357 36.35022789 215.9722133 37.91699219 247.06958008 C37.95361969 247.78148499 37.99024719 248.49338989 38.02798462 249.22686768 C38.12598893 251.1511759 38.21965118 253.07570389 38.31298828 255.00024414 C38.56509028 258.53633231 39.01905092 261.99786609 39.5625 265.5 C53.36656921 266.36808525 53.36656921 266.36808525 65.5625 260.5 C74.56395079 251.32581348 75.875 240.64500119 75.875 228.35839844 C75.54513279 207.52428512 63.72622328 186.78129509 49.7421875 171.83203125 C47.8162476 169.77148264 45.99793432 167.66126011 44.1875 165.5 C39.76526458 160.42223321 34.7959487 155.73536147 29.5625 151.5 C28.9025 151.5 28.2425 151.5 27.5625 151.5 Z M-18.4375 245.5 C-19.30720096 257.65922368 -19.30720096 257.65922368 -19.7890625 269.8203125 C-19.81275909 270.74551697 -19.83645569 271.67072144 -19.86087036 272.6239624 C-22.65862024 380.97159654 -22.65862024 380.97159654 -1.4375 486.5 C-0.7775 486.5 -0.1175 486.5 0.5625 486.5 C17.72440086 438.15456013 18.75647709 380.57833541 18.6953125 329.66015625 C18.69598882 327.63480111 18.69696156 325.60944605 18.69821167 323.58409119 C18.69967086 319.37986463 18.69759061 315.17565957 18.69287109 310.97143555 C18.68714893 305.61712228 18.69047986 300.26285889 18.69644356 294.9085474 C18.70007561 290.74154796 18.69889892 286.57456016 18.69631577 282.40756035 C18.69565514 280.43384228 18.69644419 278.46012311 18.69879532 276.48640633 C18.7013687 273.72276167 18.69741743 270.95919553 18.69189453 268.19555664 C18.69391876 267.40409744 18.69594299 266.61263824 18.69802856 265.79719543 C18.67300844 258.95186819 18.09241522 252.3888979 17.5625 245.5 C5.6825 245.5 -6.1975 245.5 -18.4375 245.5 Z " fill="#ae69c6" transform="translate(388.4375,-0.5)"/>
<path d="M0 0 C8.80288754 6.34043826 15.4186507 14.72648904 17.58203125 25.4921875 C18.92007691 37.90936834 17.85729499 48.88109459 10.39453125 59.2421875 C3.58210875 67.3274193 -4.72289951 73.55522767 -15.48876953 74.71533203 C-28.40007937 75.61089799 -39.16843729 74.04490094 -49.3515625 65.46484375 C-57.86959925 57.33325857 -62.42046403 48.68416257 -62.88867188 36.85693359 C-63.04371176 24.34263074 -60.22647828 14.71931927 -51.41796875 5.4921875 C-37.63784493 -7.66275112 -16.31305228 -10.17259803 0 0 Z M-39.41796875 24.0546875 C-42.33185757 29.29770513 -42.37407157 34.66936456 -41.41796875 40.4921875 C-39.46232201 45.93749746 -35.82498142 49.84183452 -30.7890625 52.640625 C-25.31544692 54.60643752 -19.52049058 54.60643752 -14.046875 52.640625 C-9.01095608 49.84183452 -5.37361549 45.93749746 -3.41796875 40.4921875 C-2.46186593 34.66936456 -2.50407993 29.29770513 -5.41796875 24.0546875 C-9.12325879 19.1108604 -13.15064246 16.02867984 -19.3203125 15.015625 C-28.16776592 14.59166128 -34.07633052 16.92754345 -39.41796875 24.0546875 Z " fill="#ae69c6" transform="translate(230.41796875,371.5078125)"/>
<path d="M0 0 C8.80288754 6.34043826 15.4186507 14.72648904 17.58203125 25.4921875 C18.92007691 37.90936834 17.85729499 48.88109459 10.39453125 59.2421875 C3.58210875 67.3274193 -4.72289951 73.55522767 -15.48876953 74.71533203 C-28.40007937 75.61089799 -39.16843729 74.04490094 -49.3515625 65.46484375 C-57.86959925 57.33325857 -62.42046403 48.68416257 -62.88867188 36.85693359 C-63.04371176 24.34263074 -60.22647828 14.71931927 -51.41796875 5.4921875 C-37.63784493 -7.66275112 -16.31305228 -10.17259803 0 0 Z M-39.41796875 24.0546875 C-42.33185757 29.29770513 -42.37407157 34.66936456 -41.41796875 40.4921875 C-39.46232201 45.93749746 -35.82498142 49.84183452 -30.7890625 52.640625 C-25.31544692 54.60643752 -19.52049058 54.60643752 -14.046875 52.640625 C-9.01095608 49.84183452 -5.37361549 45.93749746 -3.41796875 40.4921875 C-2.46186593 34.66936456 -2.50407993 29.29770513 -5.41796875 24.0546875 C-9.12325879 19.1108604 -13.15064246 16.02867984 -19.3203125 15.015625 C-28.16776592 14.59166128 -34.07633052 16.92754345 -39.41796875 24.0546875 Z " fill="#ae69c6" transform="translate(140.41796875,291.5078125)"/>
<path d="M0 0 C8.80288754 6.34043826 15.4186507 14.72648904 17.58203125 25.4921875 C18.92007691 37.90936834 17.85729499 48.88109459 10.39453125 59.2421875 C3.58210875 67.3274193 -4.72289951 73.55522767 -15.48876953 74.71533203 C-28.40007937 75.61089799 -39.16843729 74.04490094 -49.3515625 65.46484375 C-57.86959925 57.33325857 -62.42046403 48.68416257 -62.88867188 36.85693359 C-63.04371176 24.34263074 -60.22647828 14.71931927 -51.41796875 5.4921875 C-37.63784493 -7.66275112 -16.31305228 -10.17259803 0 0 Z M-39.41796875 24.0546875 C-42.33185757 29.29770513 -42.37407157 34.66936456 -41.41796875 40.4921875 C-39.46232201 45.93749746 -35.82498142 49.84183452 -30.7890625 52.640625 C-25.31544692 54.60643752 -19.52049058 54.60643752 -14.046875 52.640625 C-9.01095608 49.84183452 -5.37361549 45.93749746 -3.41796875 40.4921875 C-2.46186593 34.66936456 -2.50407993 29.29770513 -5.41796875 24.0546875 C-9.12325879 19.1108604 -13.15064246 16.02867984 -19.3203125 15.015625 C-28.16776592 14.59166128 -34.07633052 16.92754345 -39.41796875 24.0546875 Z " fill="#ae69c6" transform="translate(170.41796875,171.5078125)"/>
<path d="M0 0 C8.80288754 6.34043826 15.4186507 14.72648904 17.58203125 25.4921875 C18.92007691 37.90936834 17.85729499 48.88109459 10.39453125 59.2421875 C3.58210875 67.3274193 -4.72289951 73.55522767 -15.48876953 74.71533203 C-28.40007937 75.61089799 -39.16843729 74.04490094 -49.3515625 65.46484375 C-57.86959925 57.33325857 -62.42046403 48.68416257 -62.88867188 36.85693359 C-63.04371176 24.34263074 -60.22647828 14.71931927 -51.41796875 5.4921875 C-37.63784493 -7.66275112 -16.31305228 -10.17259803 0 0 Z M-39.41796875 24.0546875 C-42.33185757 29.29770513 -42.37407157 34.66936456 -41.41796875 40.4921875 C-39.46232201 45.93749746 -35.82498142 49.84183452 -30.7890625 52.640625 C-25.31544692 54.60643752 -19.52049058 54.60643752 -14.046875 52.640625 C-9.01095608 49.84183452 -5.37361549 45.93749746 -3.41796875 40.4921875 C-2.46186593 34.66936456 -2.50407993 29.29770513 -5.41796875 24.0546875 C-9.12325879 19.1108604 -13.15064246 16.02867984 -19.3203125 15.015625 C-28.16776592 14.59166128 -34.07633052 16.92754345 -39.41796875 24.0546875 Z " fill="#ae69c6" transform="translate(280.41796875,121.5078125)"/>
<path d="M0 0 C3.125 1.875 3.125 1.875 5 5 C5.98876625 10.02622846 5.7769173 13.70513784 3.125 18.125 C-1.29486216 20.7769173 -4.97377154 20.98876625 -10 20 C-13.125 18.125 -13.125 18.125 -15 15 C-15.98876625 9.97377154 -15.7769173 6.29486216 -13.125 1.875 C-8.70513784 -0.7769173 -5.02622846 -0.98876625 0 0 Z " fill="#ae69c6" transform="translate(43,266)"/>
</svg>
