<?xml version="1.0" encoding="UTF-8"?>
<svg version="1.1" xmlns="http://www.w3.org/2000/svg" width="512" height="512">
<path d="M0 0 C5.05135961 0.93559063 9.61299044 3.17808881 14.25292969 5.31542969 C15.35773682 5.81502197 16.46254395 6.31461426 17.60083008 6.8293457 C44.19509661 19.03019585 68.24662991 35.19602753 89.37792969 55.44042969 C89.961875 55.99182617 90.54582031 56.54322266 91.14746094 57.11132812 C101.01001571 66.45999189 109.49510903 76.37677589 117.37792969 87.44042969 C117.84070313 88.08512207 118.30347656 88.72981445 118.78027344 89.39404297 C125.34162167 98.61558999 130.56747138 108.21174011 135.37792969 118.44042969 C135.986612 119.70508623 136.5959706 120.96941753 137.20605469 122.23339844 C141.37792969 131.01578015 141.37792969 131.01578015 141.37792969 134.44042969 C142.03792969 134.44042969 142.69792969 134.44042969 143.37792969 134.44042969 C143.47203125 133.78558594 143.56613281 133.13074219 143.66308594 132.45605469 C149.65689421 107.17069958 168.94855288 82.22700999 186.77685547 64.07226562 C188.52134287 62.29426108 190.24374131 60.49607628 191.96777344 58.69824219 C199.91503135 50.49572125 208.19400881 43.21704215 217.37792969 36.44042969 C218.48478871 35.60330669 219.59156006 34.76606777 220.69824219 33.92871094 C234.84516122 23.38200011 250.45320576 14.9703311 266.37792969 7.44042969 C267.07611816 7.10462891 267.77430664 6.76882812 268.49365234 6.42285156 C270.6134752 5.40979634 272.74312125 4.42145654 274.87792969 3.44042969 C275.51239014 3.13717773 276.14685059 2.83392578 276.80053711 2.52148438 C281.63132592 0.36149421 285.19392823 -0.15937213 290.37792969 0.44042969 C292.57617188 2.00585938 292.57617188 2.00585938 294.37792969 4.44042969 C294.92382812 7.83203125 294.92382812 7.83203125 294.98730469 11.83105469 C295.00384094 12.53566833 295.0203772 13.24028198 295.03741455 13.96624756 C295.08584108 16.20773071 295.10725156 18.44853582 295.12792969 20.69042969 C295.15609416 22.2139012 295.18602228 23.7373412 295.21777344 25.26074219 C295.29159561 28.98715725 295.34120437 32.71344349 295.37792969 36.44042969 C296.35665039 36.11244385 297.33537109 35.78445801 298.34375 35.4465332 C301.98109692 34.22804291 305.61910928 33.01155012 309.25732422 31.7956543 C310.83074829 31.26950518 312.40399228 30.74281725 313.97705078 30.21557617 C316.24041171 29.45707145 318.50441682 28.70051783 320.76855469 27.94433594 C321.82033905 27.59116051 321.82033905 27.59116051 322.89337158 27.23085022 C333.58184469 23.66761835 333.58184469 23.66761835 339.37792969 24.44042969 C341.16015625 25.6887207 341.16015625 25.6887207 343.01855469 27.38183594 C343.71561523 28.01686035 344.41267578 28.65188477 345.13085938 29.30615234 C349.11811934 33.09326953 353.01017055 36.96922521 356.87792969 40.87792969 C357.70035156 41.70486328 358.52277344 42.53179687 359.37011719 43.38378906 C361.37505081 45.40037928 363.37759222 47.41928205 365.37792969 49.44042969 C366.14105469 49.13105469 366.90417969 48.82167969 367.69042969 48.50292969 C373.67310232 46.13768702 378.97982541 45.83795568 385.37792969 46.44042969 C390.28505984 48.76016394 393.18903449 52.158199 396.37792969 56.44042969 C397.27725148 59.13839507 397.50515121 60.68328476 397.51215076 63.45007133 C397.51660861 64.26807555 397.52106645 65.08607977 397.52565938 65.92887199 C397.52538284 67.27637116 397.52538284 67.27637116 397.52510071 68.65109253 C397.5287774 69.60567923 397.53245408 70.56026592 397.53624219 71.54377949 C397.5472942 74.75656801 397.55112541 77.96932421 397.55493164 81.18212891 C397.56119502 83.47984928 397.5678417 85.77756863 397.57484436 88.07528687 C397.5922628 94.32730814 397.60280789 100.57932176 397.61104989 106.83136129 C397.61619702 110.73456169 397.6222728 114.63775969 397.62856102 118.5409584 C397.64542964 129.34636864 397.66006573 140.15177593 397.66730976 150.95719719 C397.66921966 153.76069007 397.67113999 156.56418294 397.6730957 159.36767578 C397.67357944 160.06447158 397.67406318 160.76126738 397.67456158 161.47917821 C397.68286606 172.77268203 397.70821124 184.06608009 397.74067638 195.35953771 C397.773731 206.9524581 397.79142406 218.54531922 397.794954 230.13828671 C397.79730904 236.64813816 397.80632887 243.15782233 397.83141518 249.66762924 C397.85462418 255.78911263 397.85895798 261.91031774 397.84865379 268.03183365 C397.84815662 270.28087538 397.85453026 272.52993048 397.86820984 274.77893066 C397.88581812 277.84489074 397.87887692 280.90984003 397.86567688 283.97579956 C397.88213075 285.31660656 397.88213075 285.31660656 397.89891702 286.68450058 C397.85589192 290.81217271 397.70775213 292.91249556 395.47244549 296.49046516 C393.22526276 298.58256043 392.3985309 299.1244258 389.37792969 299.06542969 C388.71792969 299.07832031 388.05792969 299.09121094 387.37792969 299.10449219 C384.14986641 298.0326743 383.17174447 296.30104253 381.37792969 293.44042969 C380.79082672 290.32950609 380.83110499 287.26599384 380.85894775 284.10746765 C380.84769588 282.6922339 380.84769588 282.6922339 380.83621669 281.24840957 C380.81590811 278.08522391 380.82404859 274.92275289 380.83203125 271.75952148 C380.82329799 269.49279571 380.81281308 267.2260761 380.80070496 264.95936584 C380.77279433 258.80278462 380.7694414 252.64640406 380.77042484 246.48976874 C380.76730011 240.05683865 380.74169106 233.62399951 380.71844482 227.19111633 C380.68246207 216.39294953 380.66037426 205.59484857 380.64892578 194.79663086 C380.63709655 183.67517676 380.61689842 172.55378972 380.58544922 161.43237305 C380.58351312 160.74667768 380.58157702 160.06098232 380.57958224 159.3545083 C380.56981763 155.91452468 380.55988853 152.47454156 380.54987764 149.03455865 C380.46705978 120.50321693 380.41336741 91.97186741 380.37792969 63.44042969 C376.5214978 64.14150563 373.71518563 65.15843936 370.29980469 67.10839844 C369.3167334 67.66470947 368.33366211 68.22102051 367.32080078 68.79418945 C366.26715332 69.39932373 365.21350586 70.00445801 364.12792969 70.62792969 C361.86502216 71.91198355 359.60199807 73.19583203 357.33886719 74.47949219 C356.1705094 75.14507081 355.00221518 75.81076103 353.83398438 76.4765625 C348.4893835 79.51357645 343.1203266 82.50645669 337.75292969 85.50292969 C328.83523229 90.49292433 319.93428252 95.51190218 311.04150391 100.54614258 C302.94640304 105.12606477 294.83148805 109.67010631 286.71386719 114.20996094 C279.75823174 118.10201005 272.81407765 122.01376741 265.87792969 125.94042969 C257.89014882 130.46243786 249.88908766 134.95996885 241.87792969 139.44042969 C233.78613293 143.96717764 225.70065912 148.50475368 217.62792969 153.06542969 C216.80357422 153.53078125 215.97921875 153.99613281 215.12988281 154.47558594 C205.19237354 160.09541877 195.29046459 165.77612403 185.37792969 171.44042969 C185.04792969 276.38042969 184.71792969 381.32042969 184.37792969 489.44042969 C188.86288007 487.51830809 192.88570204 485.71122964 197.08886719 483.35839844 C198.15588867 482.76333496 199.22291016 482.16827148 200.32226562 481.55517578 C201.45438477 480.91918457 202.58650391 480.28319336 203.75292969 479.62792969 C204.95361149 478.9565741 206.15446076 478.28551797 207.35546875 477.61474609 C209.82403572 476.23522383 212.29142918 474.85363728 214.7578125 473.47021484 C218.13684709 471.57491941 221.518772 469.68483313 224.90136719 467.79589844 C235.85742308 461.67420007 246.79311873 455.51718412 257.71484375 449.33447266 C265.80974737 444.75457087 273.92453006 440.21066429 282.04199219 435.67089844 C288.99762764 431.77884932 295.94178172 427.86709196 302.87792969 423.94042969 C311.91219356 418.82599105 320.96561579 413.74659452 330.02661133 408.6796875 C337.99513476 404.22123444 345.94840511 399.73635866 353.88964844 395.22949219 C355.16582031 394.50632812 355.16582031 394.50632812 356.46777344 393.76855469 C357.35110352 393.24084473 358.23443359 392.71313477 359.14453125 392.16943359 C361.77675346 390.76189828 364.25236733 389.69209212 367.02539062 388.62939453 C371.99958097 386.56953015 376.74873925 384.53408424 380.37792969 380.44042969 C383.27488368 373.28257779 382.21370544 365.10088539 381.75292969 357.56542969 C381.63934728 354.4640524 381.55125698 351.36359618 381.48062134 348.26095581 C381.42876878 346.33893713 381.34769845 344.41742942 381.23397827 342.49807739 C380.94824025 336.03317041 380.94824025 336.03317041 383.25146484 332.85595703 C385.529945 331.3392374 386.66685169 330.89806909 389.37792969 330.94042969 C390.36792969 330.92496094 390.36792969 330.92496094 391.37792969 330.90917969 C394.50468201 331.73972327 395.45785401 332.79418414 397.37792969 335.44042969 C397.99343152 338.97129876 397.93801747 342.47327348 397.90917969 346.04980469 C397.91300659 347.09058167 397.9168335 348.13135864 397.92077637 349.20367432 C397.92349755 351.405975 397.91612203 353.60830789 397.89941406 355.81054688 C397.87809463 359.16448095 397.89916502 362.51625168 397.92480469 365.87011719 C397.92215976 368.01335105 397.91703137 370.15658357 397.90917969 372.29980469 C397.92132507 373.79395905 397.92132507 373.79395905 397.93371582 375.31829834 C397.85118539 381.52007767 397.03068261 386.31686304 393.37792969 391.44042969 C391.19750977 393.53540039 391.19750977 393.53540039 388.83496094 395.05371094 C387.95404785 395.62299316 387.07313477 396.19227539 386.16552734 396.77880859 C381.53645486 399.53808932 376.83507191 402.12054356 372.06542969 404.62792969 C364.29446939 408.77463619 356.57295592 412.98125892 348.94042969 417.37792969 C341.36261898 421.7385071 333.75907525 426.04879399 326.12792969 430.31542969 C325.0827417 430.8998584 324.03755371 431.48428711 322.96069336 432.08642578 C320.83266958 433.27582188 318.70449499 434.46494821 316.57617188 435.65380859 C311.3003582 438.60101504 306.02628491 441.55132697 300.75292969 444.50292969 C299.7168457 445.08284668 298.68076172 445.66276367 297.61328125 446.26025391 C289.74415248 450.6680011 281.8905528 455.10276209 274.04150391 459.54614258 C266.99816978 463.5310123 259.94083647 467.49036907 252.87792969 471.44042969 C244.82642263 475.94397316 236.78323094 480.46167483 228.75292969 485.00292969 C227.36315918 485.78845215 227.36315918 485.78845215 225.9453125 486.58984375 C220.93696167 489.4221645 215.93292294 492.26189754 210.93261719 495.10839844 C209.87768066 495.70773193 208.82274414 496.30706543 207.73583984 496.92456055 C205.70560885 498.07810813 203.67658209 499.23377843 201.64892578 500.3918457 C200.73965332 500.90803467 199.83038086 501.42422363 198.89355469 501.95605469 C198.09208008 502.41270508 197.29060547 502.86935547 196.46484375 503.33984375 C192.90448237 505.21748871 190.01932902 505.53730496 186.06542969 505.69042969 C180.48383786 506.13341317 178.23686397 507.48254837 174.37792969 511.44042969 C171.72955474 512.76461716 169.70415247 512.58944821 166.73828125 512.61743164 C165.55655334 512.63026688 164.37482544 512.64310211 163.1572876 512.65632629 C161.87400574 512.66371323 160.59072388 512.67110016 159.26855469 512.67871094 C157.95385193 512.68678268 156.63914917 512.69485443 155.28460693 512.70317078 C152.49703093 512.71820002 149.70948042 512.72803614 146.921875 512.7355957 C143.35969341 512.74664264 139.79813953 512.78102098 136.23617935 512.8207674 C132.83033 512.85328311 129.42454725 512.85771716 126.01855469 512.86621094 C124.74336975 512.88371902 123.46818481 512.90122711 122.15435791 512.91926575 C113.97159661 512.8992218 110.18560074 512.24810074 104.37792969 506.44042969 C102.79836329 506.3146494 101.21245275 506.26464953 99.62792969 506.25292969 C91.93657167 505.62850243 85.96356495 502.14771236 79.37792969 498.44042969 C78.56308105 497.98587402 77.74823242 497.53131836 76.90869141 497.06298828 C72.11863777 494.3869954 67.3436157 491.68553647 62.57714844 488.96777344 C56.36264863 485.42520358 50.12275078 481.92919725 43.87792969 478.44042969 C34.91833862 473.43028227 25.97510757 468.39213783 17.04199219 463.33496094 C9.99846621 459.350062 2.94102252 455.39052975 -4.12207031 451.44042969 C-13.08141241 446.42983466 -22.02489005 441.39213918 -30.95800781 436.33496094 C-38.00153459 432.35006154 -45.05905964 428.39067767 -52.12207031 424.44042969 C-63.06032483 418.32039746 -73.98857189 412.18354778 -84.88525391 405.98974609 C-87.6314277 404.43513245 -90.38592708 402.89609525 -93.14160156 401.35839844 C-94.86450573 400.38618141 -96.58717363 399.41354551 -98.30957031 398.44042969 C-99.09380371 398.00770752 -99.87803711 397.57498535 -100.68603516 397.12915039 C-106.72987842 393.68828206 -110.34056563 390.16213702 -112.62207031 383.44042969 C-112.87391931 380.74884373 -112.87391931 380.74884373 -112.87654591 377.78192234 C-112.8823781 376.64704712 -112.88821029 375.51217191 -112.89421922 374.34290653 C-112.8904399 373.10089621 -112.88666057 371.85888589 -112.88276672 370.57923889 C-112.88578766 369.24276228 -112.88967686 367.9062874 -112.89435929 366.56981558 C-112.90465544 362.89855631 -112.90245338 359.22739452 -112.8981787 355.55612719 C-112.89571441 351.59627069 -112.90472191 347.63643784 -112.91221619 343.67658997 C-112.92497333 335.91946385 -112.92675563 328.16237234 -112.92441592 320.4052375 C-112.92263381 314.10105587 -112.92438012 307.79688476 -112.92864037 301.49270439 C-112.92953315 300.14749351 -112.92953315 300.14749351 -112.93044397 298.77510665 C-112.9316557 296.95332071 -112.93286984 295.13153476 -112.93408635 293.30974882 C-112.94496571 276.22055482 -112.94279746 259.13138054 -112.9367015 242.04218542 C-112.93153149 226.40400432 -112.94278928 210.7658855 -112.96179972 195.12771673 C-112.9811652 179.0745674 -112.98943642 163.02144755 -112.98567647 146.96828645 C-112.98376252 137.95399103 -112.98627079 128.93974863 -113.00039101 119.92546272 C-113.01228932 112.25190018 -113.01372711 104.57842329 -113.00160084 96.90485961 C-112.99570134 92.98918562 -112.99464216 89.07366842 -113.00660324 85.15800476 C-113.01742552 81.57352044 -113.0144026 77.9893245 -113.00034156 74.40485387 C-112.9964257 72.49379561 -113.00727152 70.58272471 -113.01863843 68.67169625 C-112.97545464 61.85555386 -112.75525296 56.76900012 -107.86816406 51.57714844 C-107.27132812 51.09890625 -106.67449219 50.62066406 -106.05957031 50.12792969 C-105.16044922 49.39123047 -105.16044922 49.39123047 -104.24316406 48.63964844 C-99.67072983 45.2571489 -94.08251788 45.99730436 -88.62207031 46.44042969 C-86.5939366 47.38206319 -84.58134865 48.3628266 -82.62207031 49.44042969 C-78.73977015 48.16440366 -76.29820568 45.32998479 -73.48925781 42.46777344 C-73.01134796 41.98466202 -72.53343811 41.5015506 -72.04104614 41.00379944 C-70.52153417 39.46653928 -69.00890641 37.92273642 -67.49707031 36.37792969 C-65.97722473 34.83045491 -64.45593613 33.28447043 -62.93167114 31.74134827 C-61.55288289 30.34472168 -60.17890966 28.94334646 -58.80517578 27.54174805 C-55.84818131 24.6955334 -54.00295168 24.10928882 -49.90527344 24.17285156 C-44.73847209 24.77837063 -39.80613533 26.60568443 -34.87207031 28.19042969 C-33.75574219 28.53847656 -32.63941406 28.88652344 -31.48925781 29.24511719 C-24.46165805 31.45659963 -17.52246788 33.86016024 -10.62207031 36.44042969 C-10.61272461 35.49200195 -10.60337891 34.54357422 -10.59375 33.56640625 C-10.549678 30.03978211 -10.48804248 26.51436766 -10.41455078 22.98828125 C-10.38636497 21.46365538 -10.36513842 19.93888403 -10.35107422 18.4140625 C-10.32960982 16.21897033 -10.28294862 14.02562257 -10.23144531 11.83105469 C-10.21049805 10.51137695 -10.18955078 9.19169922 -10.16796875 7.83203125 C-9.62207031 4.44042969 -9.62207031 4.44042969 -7.80322266 2.01318359 C-5.18976358 0.12870818 -3.1996336 -0.17291322 0 0 Z M223.37792969 52.44042969 C222.39308594 53.22160156 221.40824219 54.00277344 220.39355469 54.80761719 C201.4086414 70.18474044 182.25442494 89.22536586 171.37792969 111.44042969 C171.70792969 112.10042969 172.03792969 112.76042969 172.37792969 113.44042969 C173.37759766 112.40595703 173.37759766 112.40595703 174.39746094 111.35058594 C180.7271135 104.89699612 187.25159189 99.02223885 194.37792969 93.44042969 C195.32796875 92.6734375 196.27800781 91.90644531 197.25683594 91.11621094 C218.81537675 74.01805788 243.11971582 60.7301458 267.78344727 48.71386719 C271.32467349 46.97574392 274.84960367 45.2045927 278.37792969 43.44042969 C278.37792969 35.85042969 278.37792969 28.26042969 278.37792969 20.44042969 C261.47973128 20.44042969 236.24960668 42.12151545 223.37792969 52.44042969 Z M6.37792969 20.44042969 C6.37792969 28.03042969 6.37792969 35.62042969 6.37792969 43.44042969 C9.84292969 45.17292969 9.84292969 45.17292969 13.37792969 46.94042969 C14.14951416 47.32730957 14.92109863 47.71418945 15.71606445 48.11279297 C19.45764891 49.98828512 23.20561189 51.84871465 26.96777344 53.68261719 C27.69673828 54.04033203 28.42570312 54.39804687 29.17675781 54.76660156 C30.58585374 55.45763765 31.9972727 56.14395982 33.41113281 56.82519531 C38.26549728 59.21556487 38.26549728 59.21556487 39.37792969 61.44042969 C39.66269387 64.71521778 39.70497846 66.80354524 38.19042969 69.75292969 C35.8699227 71.91340171 34.5250755 72.15649356 31.37792969 72.44042969 C28.68432617 71.53515625 28.68432617 71.53515625 25.74902344 70.08105469 C24.64574707 69.54754395 23.5424707 69.0140332 22.40576172 68.46435547 C21.82167542 68.17530334 21.23758911 67.88625122 20.63580322 67.58843994 C17.51113685 66.04700771 14.36124848 64.55931627 11.20996094 63.07324219 C10.56146179 62.76703949 9.91296265 62.46083679 9.24481201 62.14535522 C-5.76071424 55.11681787 -21.37762296 49.32798058 -37.12207031 44.19042969 C-38.03005371 43.89023926 -38.93803711 43.59004883 -39.87353516 43.28076172 C-40.70836426 43.0189209 -41.54319336 42.75708008 -42.40332031 42.48730469 C-43.12583984 42.25881836 -43.84835938 42.03033203 -44.59277344 41.79492188 C-47.02729712 41.36964175 -48.32525117 41.52345835 -50.62207031 42.44042969 C-52.61748102 44.02404332 -52.61748102 44.02404332 -54.51269531 46.03808594 C-55.22167969 46.75673828 -55.93066406 47.47539063 -56.66113281 48.21582031 C-57.75554688 49.34793945 -57.75554688 49.34793945 -58.87207031 50.50292969 C-59.61714844 51.26154297 -60.36222656 52.02015625 -61.12988281 52.80175781 C-62.96753725 54.67475176 -64.79782756 56.5543858 -66.62207031 58.44042969 C-63.73224253 60.70319961 -60.77961775 62.55949749 -57.57128906 64.33886719 C-56.57484375 64.89380859 -55.57839844 65.44875 -54.55175781 66.02050781 C-52.946875 66.90899414 -52.946875 66.90899414 -51.30957031 67.81542969 C-49.03199207 69.08323769 -46.75465333 70.35147604 -44.47753906 71.62011719 C-43.32688965 72.26045898 -42.17624023 72.90080078 -40.99072266 73.56054688 C-36.02265961 76.33298386 -31.07177146 79.1353828 -26.12207031 81.94042969 C-18.13451443 86.46283134 -10.1332881 90.96008196 -2.12207031 95.44042969 C6.83727179 100.45102471 15.78074942 105.4887202 24.71386719 110.54589844 C31.75739316 114.53079738 38.81483686 118.49032962 45.87792969 122.44042969 C53.88915431 126.92078124 61.88970224 131.41920726 69.87792969 135.94042969 C71.75419331 137.00039361 73.6304957 138.0602889 75.50683594 139.12011719 C78.56766348 140.84935706 81.6265207 142.58186243 84.68212891 144.3203125 C88.05704908 146.2404174 91.43597591 148.15331806 94.81542969 150.06542969 C95.85183594 150.65775391 96.88824219 151.25007812 97.95605469 151.86035156 C106.22609642 156.52647603 112.70751588 160.07770247 122.37792969 159.12792969 C123.05726563 159.06669922 123.73660156 159.00546875 124.43652344 158.94238281 C126.08524044 158.79144393 127.73190262 158.61832063 129.37792969 158.44042969 C122.16552664 147.13007036 113.61626698 137.13560783 104.37792969 127.44042969 C103.80623047 126.84004883 103.23453125 126.23966797 102.64550781 125.62109375 C92.16480144 114.69475992 81.02355684 105.39261807 68.73339844 96.56152344 C67.37792969 95.44042969 67.37792969 95.44042969 66.37792969 93.44042969 C66.10036384 90.24842248 66.12828371 88.03333889 67.37792969 85.06542969 C69.96185053 82.965994 72.03326447 83.0480178 75.28710938 83.12353516 C78.77757809 83.65256696 80.82723924 85.46883814 83.50292969 87.69042969 C84.04788086 88.13572021 84.59283203 88.58101074 85.15429688 89.03979492 C86.91275009 90.48724111 88.6451666 91.96237226 90.37792969 93.44042969 C91.58812258 94.44783527 92.79906542 95.45434061 94.01074219 96.45996094 C100.79563327 102.14016529 107.26254201 108.03383308 113.37792969 114.44042969 C113.37792969 110.18039624 111.15895784 107.42813223 108.94042969 103.94042969 C108.48740479 103.2235498 108.03437988 102.50666992 107.56762695 101.76806641 C103.60482944 95.60248673 99.2188225 89.94575877 94.37792969 84.44042969 C93.70632812 83.65925781 93.03472656 82.87808594 92.34277344 82.07324219 C81.44972479 69.65313065 69.81961257 58.07477959 56.37792969 48.44042969 C55.64429199 47.91126953 54.9106543 47.38210937 54.15478516 46.83691406 C43.44654647 39.20044033 32.36073563 32.593945 20.69042969 26.56542969 C20.08913239 26.25439301 19.48783508 25.94335632 18.86831665 25.62289429 C12.90008831 22.0475497 12.90008831 22.0475497 6.37792969 20.44042969 Z M316.44042969 46.19042969 C315.7034082 46.4358551 314.96638672 46.68128052 314.20703125 46.93414307 C253.57686219 67.24741225 190.2350935 102.84545956 155.37792969 158.44042969 C168.64758216 160.65203843 176.90205603 157.48430675 188.44042969 151.06542969 C189.39651123 150.53868652 190.35259277 150.01194336 191.33764648 149.46923828 C200.08011763 144.63916736 208.7734067 139.72170489 217.45996094 134.79199219 C223.58587185 131.31741224 229.73062892 127.87698614 235.87792969 124.44042969 C243.88923426 119.96023265 251.89015029 115.46243703 259.87792969 110.94042969 C268.91733278 105.82308166 277.97607264 100.74109789 287.04199219 95.67089844 C294.93387999 91.25496618 302.80909409 86.81020716 310.67871094 82.35473633 C319.11893903 77.57938252 327.57891436 72.83962487 336.04394531 68.10839844 C341.16921642 65.24279944 346.28622884 62.36529717 351.37792969 59.44042969 C347.67269692 54.93406552 343.76766023 50.67176825 339.69042969 46.50292969 C339.21500732 46.00623779 338.73958496 45.5095459 338.24975586 44.99780273 C337.01655542 43.75241609 335.70142561 42.58939868 334.37792969 41.44042969 C328.27312044 41.44042969 322.21187931 44.26687887 316.44042969 46.19042969 Z M-96.62207031 62.44042969 C-96.62207031 167.38042969 -96.62207031 272.32042969 -96.62207031 380.44042969 C-78.95035955 390.43759496 -78.95035955 390.43759496 -61.24707031 400.37792969 C-59.71300537 401.23632446 -59.71300537 401.23632446 -58.14794922 402.11206055 C-54.97291829 403.88865252 -51.79754548 405.66463189 -48.62207031 407.44042969 C-31.6518785 416.93054621 -14.7080205 426.46551027 2.21191406 436.04492188 C13.04656098 442.17809262 23.88932439 448.29617136 34.75292969 454.37792969 C35.79102783 454.95921631 36.82912598 455.54050293 37.89868164 456.1394043 C43.15287691 459.08017613 48.40982474 462.01588681 53.67089844 464.94433594 C55.76090011 466.10941728 57.85074464 467.27478056 59.94042969 468.44042969 C61.4680896 469.29133179 61.4680896 469.29133179 63.02661133 470.15942383 C68.43814739 473.1869554 73.80997609 476.26953855 79.14355469 479.43261719 C80.24111084 480.08230469 81.33866699 480.73199219 82.46948242 481.40136719 C84.57270496 482.6512167 86.6714105 483.90870769 88.76489258 485.17480469 C89.70582764 485.73425781 90.6467627 486.29371094 91.61621094 486.87011719 C92.44161377 487.36753418 93.2670166 487.86495117 94.11743164 488.37744141 C96.56489549 489.72412492 96.56489549 489.72412492 100.37792969 489.44042969 C100.60674173 449.03138433 100.78298699 408.62242329 100.88858298 368.21285971 C100.90109028 363.44382599 100.91403348 358.67479354 100.92724609 353.90576172 C100.9298692 352.95632008 100.9324923 352.00687845 100.93519489 351.02866586 C100.97872649 335.64865458 101.05758192 320.26901649 101.14945765 304.88922672 C101.24292266 289.1119879 101.29850669 273.33494472 101.31881464 257.5574404 C101.33254674 247.81902658 101.37593876 238.08166748 101.45709436 228.34357829 C101.50989278 221.66874941 101.52594512 214.99446696 101.51294346 208.31944434 C101.5065278 204.46592028 101.51646203 200.61424078 101.56998444 196.76104355 C101.62757785 192.58430662 101.60785062 188.41150914 101.58047485 184.23446655 C101.60960327 183.01462204 101.63873168 181.79477753 101.66874278 180.53796804 C101.60958594 177.21128351 101.47577304 174.58299989 100.37792969 171.44042969 C97.35857059 168.61600849 94.15888049 167.04060361 90.37792969 165.44042969 C89.36641846 164.85962646 88.35490723 164.27882324 87.31274414 163.68041992 C86.46413818 163.20805908 85.61553223 162.73569824 84.74121094 162.24902344 C83.27554688 161.43111328 83.27554688 161.43111328 81.78027344 160.59667969 C80.25080078 159.74589844 80.25080078 159.74589844 78.69042969 158.87792969 C76.46755348 157.63743834 74.24490204 156.39654414 72.02246094 155.15527344 C70.9095166 154.53378418 69.79657227 153.91229492 68.64990234 153.27197266 C63.71691869 150.51065021 58.79694111 147.72654338 53.87792969 144.94042969 C45.89025603 140.41823472 37.88914871 135.9207781 29.87792969 131.44042969 C20.91858759 126.42983466 11.97510995 121.39213918 3.04199219 116.33496094 C-4.00153379 112.350062 -11.05897748 108.39052975 -18.12207031 104.44042969 C-27.07483007 99.4335159 -36.01196034 94.39991198 -44.93823242 89.34594727 C-53.23385518 84.6522115 -61.5481362 79.99212398 -69.87280273 75.35009766 C-74.32697603 72.86311062 -78.77332104 70.3696269 -83.16894531 67.78027344 C-83.81984131 67.39846924 -84.4707373 67.01666504 -85.14135742 66.62329102 C-86.78133446 65.65582737 -88.41493794 64.67758059 -90.04785156 63.69824219 C-92.74354331 62.14775336 -92.74354331 62.14775336 -96.62207031 62.44042969 Z M116.37792969 176.44042969 C116.37792969 182.05042969 116.37792969 187.66042969 116.37792969 193.44042969 C133.53792969 193.44042969 150.69792969 193.44042969 168.37792969 193.44042969 C168.37792969 187.83042969 168.37792969 182.22042969 168.37792969 176.44042969 C165.90227934 173.96477934 165.18487236 174.18808007 161.77636719 174.18164062 C160.82197754 174.1753363 159.86758789 174.16903198 158.88427734 174.16253662 C157.85093262 174.16658508 156.81758789 174.17063354 155.75292969 174.17480469 C154.16617432 174.17193451 154.16617432 174.17193451 152.54736328 174.16900635 C150.30794029 174.16764367 148.06850943 174.17134587 145.82910156 174.1796875 C142.39207291 174.19038567 138.95556699 174.17979481 135.51855469 174.16699219 C133.34667853 174.16831377 131.1748027 174.17087613 129.00292969 174.17480469 C127.96958496 174.17075623 126.93624023 174.16670776 125.87158203 174.16253662 C124.91719238 174.16884094 123.96280273 174.17514526 122.97949219 174.18164062 C121.71613037 174.1840274 121.71613037 174.1840274 120.42724609 174.1864624 C118.15346572 174.25504452 118.15346572 174.25504452 116.37792969 176.44042969 Z M116.37792969 209.44042969 C116.37792969 215.38042969 116.37792969 221.32042969 116.37792969 227.44042969 C133.53792969 227.44042969 150.69792969 227.44042969 168.37792969 227.44042969 C168.37792969 221.50042969 168.37792969 215.56042969 168.37792969 209.44042969 C151.21792969 209.44042969 134.05792969 209.44042969 116.37792969 209.44042969 Z M116.37792969 243.44042969 C116.37792969 304.49042969 116.37792969 365.54042969 116.37792969 428.44042969 C133.53792969 428.44042969 150.69792969 428.44042969 168.37792969 428.44042969 C168.37792969 367.39042969 168.37792969 306.34042969 168.37792969 243.44042969 C151.21792969 243.44042969 134.05792969 243.44042969 116.37792969 243.44042969 Z M116.37792969 444.44042969 C116.37792969 450.38042969 116.37792969 456.32042969 116.37792969 462.44042969 C133.53792969 462.44042969 150.69792969 462.44042969 168.37792969 462.44042969 C168.37792969 456.50042969 168.37792969 450.56042969 168.37792969 444.44042969 C151.21792969 444.44042969 134.05792969 444.44042969 116.37792969 444.44042969 Z M116.37792969 478.44042969 C116.37792969 484.05042969 116.37792969 489.66042969 116.37792969 495.44042969 C119.53504061 497.5451703 120.28869949 497.69206195 123.89355469 497.69921875 C124.80459961 497.70552307 125.71564453 497.71182739 126.65429688 497.71832275 C127.6355957 497.71427429 128.61689453 497.71022583 129.62792969 497.70605469 C131.14241699 497.70892487 131.14241699 497.70892487 132.6875 497.71185303 C134.82259368 497.71321427 136.95769565 497.70952206 139.09277344 497.70117188 C142.36509757 497.69047165 145.63687268 497.70106936 148.90917969 497.71386719 C150.98209757 497.71254558 153.05501511 497.70998317 155.12792969 497.70605469 C156.10922852 497.71010315 157.09052734 497.71415161 158.1015625 497.71832275 C159.46812988 497.70886627 159.46812988 497.70886627 160.86230469 497.69921875 C162.0645166 497.69683197 162.0645166 497.69683197 163.29101562 497.69439697 C165.68291594 497.56219427 165.68291594 497.56219427 168.37792969 495.44042969 C168.37792969 489.83042969 168.37792969 484.22042969 168.37792969 478.44042969 C151.21792969 478.44042969 134.05792969 478.44042969 116.37792969 478.44042969 Z " fill="#8f87d2" transform="translate(113.6220703125,-0.4404296875)"/>
<path d="M0 0 C2.64148765 2.05666966 3.84503849 3.25637749 4.53485107 6.56661987 C4.55009827 7.53447418 4.56534546 8.50232849 4.58105469 9.49951172 C4.6065741 10.60100555 4.63209351 11.70249939 4.65838623 12.83737183 C4.66283752 14.022836 4.66728882 15.20830017 4.671875 16.4296875 C4.6918454 18.26432053 4.6918454 18.26432053 4.71221924 20.13601685 C4.73246966 22.72326644 4.74185335 25.31062046 4.74121094 27.89794922 C4.74995424 31.85429276 4.82256813 35.80616587 4.8984375 39.76171875 C4.9101749 42.27602641 4.91811298 44.79035526 4.921875 47.3046875 C4.95061707 48.48610321 4.97935913 49.66751892 5.00897217 50.88473511 C4.92012555 58.88245717 4.92012555 58.88245717 2.34692383 62.00775146 C0.30391116 63.57802331 -1.71741149 64.8103733 -4 66 C-4.93134766 66.57556641 -5.86269531 67.15113281 -6.82226562 67.74414062 C-7.67498047 68.21013672 -8.52769531 68.67613281 -9.40625 69.15625 C-10.87384766 69.96642578 -10.87384766 69.96642578 -12.37109375 70.79296875 C-13.91990234 71.63794922 -13.91990234 71.63794922 -15.5 72.5 C-24.06338301 77.23053785 -32.56741538 82.03998504 -41 87 C-50.14866808 92.37274143 -59.37405066 97.59077602 -68.64453125 102.75 C-75.8135385 106.74964539 -82.92089405 110.84353527 -90 115 C-99.36977585 120.50062596 -108.80457188 125.87253849 -118.30810547 131.13891602 C-122.72816484 133.59032133 -127.13034758 136.0455554 -131.4375 138.69140625 C-132.0754248 139.07828613 -132.71334961 139.46516602 -133.37060547 139.86376953 C-134.96720384 140.84092506 -136.55078819 141.83926474 -138.1328125 142.83984375 C-141.82557005 144.33405219 -144.17048399 143.91595395 -148 143 C-150.58455285 141.10466125 -150.96275506 140.11173483 -152 137 C-152.10209712 135.35466572 -152.14840405 133.70557869 -152.16113281 132.05712891 C-152.17074036 131.05243561 -152.1803479 130.04774231 -152.19024658 129.01260376 C-152.19449646 127.92821014 -152.19874634 126.84381653 -152.203125 125.7265625 C-152.20882507 124.61066742 -152.21452515 123.49477234 -152.22039795 122.34506226 C-152.22984834 119.98298084 -152.23638208 117.62088624 -152.24023438 115.25878906 C-152.24994289 111.64625049 -152.28096782 108.03428009 -152.3125 104.421875 C-152.31902981 102.12760755 -152.32428037 99.83333602 -152.328125 97.5390625 C-152.3404718 96.45871735 -152.3528186 95.37837219 -152.36553955 94.26528931 C-152.33750729 84.82189752 -152.33750729 84.82189752 -149 81 C-146.70110102 79.3952202 -144.50490766 78.03301452 -142.0625 76.6875 C-140.9628894 76.06125732 -140.9628894 76.06125732 -139.84106445 75.42236328 C-138.17133355 74.4726267 -136.49850586 73.52832171 -134.82324219 72.58837891 C-131.75063898 70.85970747 -128.6909724 69.10956076 -125.6328125 67.35546875 C-120.88755867 64.63453986 -116.13912749 61.91934851 -111.38671875 59.2109375 C-104.83473034 55.47670028 -98.28615928 51.73651772 -91.73892212 47.99395752 C-88.82611439 46.32901398 -85.91304348 44.66453102 -83 43 C-81.83333208 42.33333552 -80.66666541 41.66666886 -79.5 41 C-77.16666667 39.66666667 -74.83333333 38.33333333 -72.5 37 C-71.92258057 36.67004532 -71.34516113 36.34009064 -70.75024414 36.00013733 C-69.58276618 35.33300852 -68.4152857 34.66588409 -67.24780273 33.99876404 C-64.34352843 32.33920402 -61.43930632 30.67955282 -58.53515625 29.01977539 C-53.13778036 25.93518114 -47.74004948 22.85121632 -42.34082031 19.76986694 C-39.83024107 18.33701567 -37.31989768 16.90375148 -34.80957031 15.47045898 C-33.06858714 14.47665167 -31.32726915 13.48343097 -29.5859375 12.49023438 C-27.96558594 11.56500977 -27.96558594 11.56500977 -26.3125 10.62109375 C-25.26771484 10.02578857 -24.22292969 9.4304834 -23.14648438 8.81713867 C-20.98011927 7.56603257 -18.82571341 6.294063 -16.68164062 5.00512695 C-15.62138672 4.36921631 -14.56113281 3.73330566 -13.46875 3.078125 C-12.05239258 2.21622559 -12.05239258 2.21622559 -10.60742188 1.33691406 C-6.65152597 -0.6914086 -4.35356506 -0.85516457 0 0 Z M-18.56640625 24.5703125 C-19.51386719 25.12976563 -20.46132813 25.68921875 -21.4375 26.265625 C-22.46875 26.87921875 -23.5 27.4928125 -24.5625 28.125 C-33.1517113 33.18963723 -41.78402327 38.15679727 -50.5 43 C-58.72231606 47.57513021 -66.88582688 52.23571486 -75 57 C-82.08003356 61.15708392 -89.18440177 65.25859096 -96.36157227 69.24609375 C-98.44594383 70.41094208 -100.52212309 71.59057796 -102.58959961 72.78515625 C-107.93085545 75.85343863 -113.21933433 78.57132036 -118.91015625 80.9375 C-128.48515234 85.04064039 -128.48515234 85.04064039 -136 92 C-138.81768606 101.72992684 -137.48537096 112.12609178 -136 122 C-128.06530774 118.14593221 -120.39307447 114.00708986 -112.8125 109.5 C-104.43109458 104.56170962 -96.00227117 99.72711088 -87.5 95 C-79.27779824 90.42465496 -71.11421666 85.76422526 -63 81 C-52.62796261 74.91098581 -42.15782371 69.01137804 -31.65234375 63.15625 C-25.07182629 59.48831245 -18.53179807 55.75390694 -12 52 C-12 42.1 -12 32.2 -12 22 C-14.77115089 22 -16.18520978 23.15329978 -18.56640625 24.5703125 Z " fill="#8f87d2" transform="translate(470,130)"/>
<path d="M0 0 C2.65328802 3.97993203 2.29529272 7.45211113 2.29052734 12.07373047 C2.30060318 13.46685455 2.30060318 13.46685455 2.31088257 14.88812256 C2.32991171 17.96453166 2.33378928 21.04072317 2.3359375 24.1171875 C2.34236212 26.2532663 2.34909022 28.38934421 2.35610962 30.52542114 C2.36809477 35.00606324 2.37178918 39.48662816 2.37060547 43.96728516 C2.37040224 49.70980823 2.39770355 55.45183665 2.43214989 61.19424248 C2.45438376 65.60717035 2.45844408 70.01997854 2.45738602 74.4329567 C2.4597473 76.55006744 2.4686004 78.66718122 2.48405075 80.78423691 C2.50363892 83.74567069 2.49790063 86.7060295 2.48583984 89.66748047 C2.49707886 90.54246185 2.50831787 91.41744324 2.51989746 92.31893921 C2.47744895 96.41906754 2.32059013 98.48820085 0.09463501 102.04177856 C-2.15246906 104.14253948 -2.97433093 104.6840951 -6 104.625 C-6.66 104.63789063 -7.32 104.65078125 -8 104.6640625 C-11.22748155 103.59243777 -12.20623629 101.85970421 -14 99 C-14.58424356 95.89372206 -14.54681237 92.8368304 -14.51757812 89.68334961 C-14.5245874 88.75270187 -14.53159668 87.82205414 -14.53881836 86.86320496 C-14.55639748 83.79261276 -14.54477662 80.72294501 -14.53125 77.65234375 C-14.5339447 75.51672692 -14.53782694 73.38111129 -14.54284668 71.24549866 C-14.54874143 66.77251489 -14.54017842 62.29985087 -14.52148438 57.8269043 C-14.49868129 52.09101165 -14.51182701 46.35586708 -14.53577423 40.62000179 C-14.55022088 36.21137341 -14.54563161 31.80292272 -14.53526306 27.39428902 C-14.53259337 25.27915928 -14.53587403 23.16401345 -14.54518127 21.04890251 C-14.55532951 18.09458472 -14.53987019 15.14148296 -14.51757812 12.18725586 C-14.52567505 11.31182129 -14.53377197 10.43638672 -14.54211426 9.53442383 C-14.45942699 3.62549542 -14.45942699 3.62549542 -12.15515137 0.48829651 C-7.63936909 -2.63019582 -4.9795867 -1.8107588 0 0 Z " fill="#8f87d2" transform="translate(262,284)"/>
</svg>
