<?xml version="1.0" encoding="UTF-8"?>
<svg version="1.1" xmlns="http://www.w3.org/2000/svg" width="100" height="100">
<path d="M0 0 C9.40707465 5.68464327 15.68680199 13.83643636 18.546875 24.5390625 C19.81816587 35.18018906 19.08411233 45.14253855 13.546875 54.5390625 C12.556875 55.5290625 12.556875 55.5290625 11.546875 56.5390625 C13.031875 57.0340625 13.031875 57.0340625 14.546875 57.5390625 C14.546875 58.8590625 14.546875 60.1790625 14.546875 61.5390625 C13.226875 61.5390625 11.906875 61.5390625 10.546875 61.5390625 C10.216875 60.8790625 9.886875 60.2190625 9.546875 59.5390625 C9.01320313 59.99796875 8.47953125 60.456875 7.9296875 60.9296875 C-2.56169886 69.56965274 -11.91574525 71.83539098 -25.31445312 70.80957031 C-34.8744138 69.60038807 -42.8797787 64.22976046 -48.828125 56.828125 C-51.453125 53.09114583 -51.453125 53.09114583 -51.453125 50.5390625 C-52.2575 50.5596875 -53.061875 50.5803125 -53.890625 50.6015625 C-56.453125 50.5390625 -56.453125 50.5390625 -57.453125 49.5390625 C-57.578125 46.5390625 -57.578125 46.5390625 -57.453125 43.5390625 C-56.958125 43.0440625 -56.958125 43.0440625 -56.453125 42.5390625 C-56.37687052 40.5797461 -56.30610979 38.62003955 -56.26513672 36.65966797 C-55.96707395 24.96481162 -53.82146128 15.03480794 -45.4765625 6.2890625 C-32.87910695 -4.60603419 -15.10756629 -7.47031593 0 0 Z " fill="#E4E3F7" transform="translate(68.453125,16.4609375)"/>
<path d="M0 0 C0.66 0.33 1.32 0.66 2 1 C5.37328752 1.31583446 8.74734365 1.51133762 12.12890625 1.71875 C15 2 15 2 16 3 C16.36760731 5.32817964 16.70241581 7.6618385 17 10 C19.475 10.495 19.475 10.495 22 11 C22.8125 12.6875 22.8125 12.6875 23 15 C20.625 17.6875 20.625 17.6875 18 20 C16.09286344 21.90713656 16.77843189 25.30790476 16.71875 27.84375 C16.70034058 28.52804077 16.68193115 29.21233154 16.66296387 29.9173584 C16.60404861 32.11148259 16.55129816 34.30568526 16.5 36.5 C16.43254139 39.38558934 16.35887387 42.27091825 16.28125 45.15625 C16.25095703 46.44337891 16.22066406 47.73050781 16.18945312 49.05664062 C16 52 16 52 15 53 C12.12735944 53.10106874 9.27926372 53.13969672 6.40625 53.1328125 C5.54439087 53.13376923 4.68253174 53.13472595 3.79455566 53.13571167 C1.96866788 53.1363935 0.14277769 53.13453904 -1.68310547 53.13037109 C-4.48801078 53.12502286 -7.29275595 53.13031599 -10.09765625 53.13671875 C-11.86718786 53.13605797 -13.63671936 53.13477681 -15.40625 53.1328125 C-16.25102905 53.13483673 -17.09580811 53.13686096 -17.96618652 53.13894653 C-23.88504969 53.11495031 -23.88504969 53.11495031 -25 52 C-25.09839214 50.4706537 -25.12798539 48.93680434 -25.12939453 47.40429688 C-25.13254669 46.42658325 -25.13569885 45.44886963 -25.13894653 44.44152832 C-25.1369223 43.37801147 -25.13489807 42.31449463 -25.1328125 41.21875 C-25.13376923 40.13493042 -25.13472595 39.05111084 -25.13571167 37.93444824 C-25.13639365 35.6377761 -25.13453811 33.34110205 -25.13037109 31.04443359 C-25.12502312 27.51525572 -25.1303155 23.98620513 -25.13671875 20.45703125 C-25.13605797 18.23177055 -25.13477682 16.00650993 -25.1328125 13.78125 C-25.13483673 12.71773315 -25.13686096 11.65421631 -25.13894653 10.55847168 C-25.13579437 9.58075806 -25.13264221 8.60304443 -25.12939453 7.59570312 C-25.12859894 6.73046021 -25.12780334 5.86521729 -25.12698364 4.97375488 C-25 3 -25 3 -24 2 C-20.4751771 1.71272465 -16.95016645 1.55094075 -13.41796875 1.37890625 C-0.31021509 -0.07418187 -0.31021509 -0.07418187 0 0 Z " fill="#4F3430" transform="translate(54,23)"/>
<path d="M0 0 C2.31 0 4.62 0 7 0 C7.33 0.66 7.66 1.32 8 2 C13.28 2 18.56 2 24 2 C24.33 1.34 24.66 0.68 25 0 C26.98 0 28.96 0 31 0 C31.76233307 3.54985401 31.86991649 6.45887256 31 10 C28.85020772 12.59766567 26.64459846 14.76503808 24.14794922 17.00830078 C20.01381102 20.76550681 18.31724671 23.6296865 17 29 C22.37722282 26.49681007 26.59391956 23.96547239 31 20 C31 24.29 31 28.58 31 33 C28.69 33 26.38 33 24 33 C24 35.31 24 37.62 24 40 C16.08 40 8.16 40 0 40 C0 26.8 0 13.6 0 0 Z " fill="#F3F0E7" transform="translate(34,30)"/>
<path d="M0 0 C3.3 0 6.6 0 10 0 C10 0.66 10 1.32 10 2 C7.36 2 4.72 2 2 2 C2 15.86 2 29.72 2 44 C10.58 44 19.16 44 28 44 C28 41.69 28 39.38 28 37 C30.31 37 32.62 37 35 37 C35 31.72 35 26.44 35 21 C35.66 20.67 36.32 20.34 37 20 C37 28.91 37 37.82 37 47 C24.79 47 12.58 47 0 47 C0 31.49 0 15.98 0 0 Z " fill="#BD7740" transform="translate(31,27)"/>
<path d="M0 0 C0.40729228 2.32156597 0.74438677 4.6568787 1 7 C3.475 7.495 3.475 7.495 6 8 C6.8125 9.6875 6.8125 9.6875 7 12 C4.63663455 14.8646854 2.23262254 16.84828965 -0.875 18.875 C-4.21218552 21.14428616 -6.74364942 23.67111965 -9.484375 26.609375 C-11 28 -11 28 -13 28 C-13 28.66 -13 29.32 -13 30 C-14.32 30.33 -15.64 30.66 -17 31 C-17.625 29.1875 -17.625 29.1875 -18 27 C-16 24 -16 24 -13.75 22.6875 C-10.20061348 20.50946736 -7.18889536 18.61795125 -5 15 C-4.2121448 10.99421675 -4.01319346 7.07678068 -4 3 C-6.31 3 -8.62 3 -11 3 C-11 2.01 -11 1.02 -11 0 C-9.54263913 -0.19491452 -8.08405407 -0.38069358 -6.625 -0.5625 C-5.81289062 -0.66691406 -5.00078125 -0.77132813 -4.1640625 -0.87890625 C-2 -1 -2 -1 0 0 Z " fill="#523A3A" transform="translate(70,26)"/>
<path d="M0 0 C1.85772162 0.08984301 3.71247985 0.24611861 5.5625 0.4375 C7.08037109 0.59025391 7.08037109 0.59025391 8.62890625 0.74609375 C9.80259766 0.87177734 9.80259766 0.87177734 11 1 C11 1.33 11 1.66 11 2 C7.7 2 4.4 2 1 2 C1 17.51 1 33.02 1 49 C13.21 49 25.42 49 38 49 C38 39.76 38 30.52 38 21 C38.33 21 38.66 21 39 21 C39.16728213 25.11149887 39.32787468 29.22319806 39.48217773 33.33520508 C39.53566026 34.73501681 39.59099434 36.13475904 39.64819336 37.53442383 C39.72992949 39.5422896 39.80453025 41.55044187 39.87890625 43.55859375 C39.9260376 44.76829834 39.97316895 45.97800293 40.02172852 47.22436523 C40 50 40 50 39 51 C36.12735944 51.10106874 33.27926372 51.13969672 30.40625 51.1328125 C29.54439087 51.13376923 28.68253174 51.13472595 27.79455566 51.13571167 C25.96866788 51.1363935 24.14277769 51.13453904 22.31689453 51.13037109 C19.51198922 51.12502286 16.70724405 51.13031599 13.90234375 51.13671875 C12.13281214 51.13605797 10.36328064 51.13477681 8.59375 51.1328125 C7.74897095 51.13483673 6.90419189 51.13686096 6.03381348 51.13894653 C0.11495031 51.11495031 0.11495031 51.11495031 -1 50 C-1.09839214 48.4706537 -1.12798539 46.93680434 -1.12939453 45.40429688 C-1.13254669 44.42658325 -1.13569885 43.44886963 -1.13894653 42.44152832 C-1.1369223 41.37801147 -1.13489807 40.31449463 -1.1328125 39.21875 C-1.13376923 38.13493042 -1.13472595 37.05111084 -1.13571167 35.93444824 C-1.13639365 33.6377761 -1.13453811 31.34110205 -1.13037109 29.04443359 C-1.12502312 25.51525572 -1.1303155 21.98620513 -1.13671875 18.45703125 C-1.13605797 16.23177055 -1.13477682 14.00650993 -1.1328125 11.78125 C-1.13483673 10.71773315 -1.13686096 9.65421631 -1.13894653 8.55847168 C-1.13579437 7.58075806 -1.13264221 6.60304443 -1.12939453 5.59570312 C-1.12859894 4.73046021 -1.12780334 3.86521729 -1.12698364 2.97375488 C-1 1 -1 1 0 0 Z " fill="#643F31" transform="translate(30,25)"/>
<path d="M0 0 C2.875 1.5 2.875 1.5 5 3 C4.67 4.65 4.34 6.3 4 8 C-0.62 8 -5.24 8 -10 8 C-10.33 6.35 -10.66 4.7 -11 3 C-7.18184371 0.30483085 -4.67146691 -0.58393336 0 0 Z " fill="#DCC757" transform="translate(53,24)"/>
<path d="M0 0 C0.99 0.66 1.98 1.32 3 2 C1.46781315 5.63061667 -0.7183144 7.9863773 -3.5 10.75 C-4.2940625 11.54921875 -5.088125 12.3484375 -5.90625 13.171875 C-8 15 -8 15 -10 15 C-10 15.66 -10 16.32 -10 17 C-11.32 17.33 -12.64 17.66 -14 18 C-14.625 16.1875 -14.625 16.1875 -15 14 C-13 11 -13 11 -10.875 9.8125 C-6.6568393 7.15322477 -3.43457651 3.58798191 0 0 Z " fill="#E8D55B" transform="translate(67,39)"/>
<path d="M0 0 C0 9.9 0 19.8 0 30 C-0.33 30 -0.66 30 -1 30 C-1.33 21.09 -1.66 12.18 -2 3 C-4.05922402 5.05922402 -3.41427579 9.21708124 -3.5625 12.0625 C-3.60568359 12.82111328 -3.64886719 13.57972656 -3.69335938 14.36132812 C-3.79973633 16.24065438 -3.90039934 18.12030244 -4 20 C-4.33 20 -4.66 20 -5 20 C-5.33 15.71 -5.66 11.42 -6 7 C-7.216875 8.134375 -8.43375 9.26875 -9.6875 10.4375 C-12.74583179 13.28848726 -14.8275894 14.48118887 -19 15 C-18.67 13.68 -18.34 12.36 -18 11 C-16.35 11.33 -14.7 11.66 -13 12 C-13 11.34 -13 10.68 -13 10 C-11.35546875 8.37890625 -11.35546875 8.37890625 -9.1875 6.5625 C-6.17536735 4.02660668 -6.17536735 4.02660668 -3.36328125 1.27734375 C-2 0 -2 0 0 0 Z " fill="#523731" transform="translate(70,44)"/>
<path d="M0 0 C0.33 0 0.66 0 1 0 C1.495 14.355 1.495 14.355 2 29 C-1.23464083 30.61732041 -4.74708451 29.99875197 -8.2890625 29.87890625 C-9.10748627 29.85529526 -9.92591003 29.83168427 -10.76913452 29.80735779 C-13.3879306 29.73067056 -16.00643471 29.64666817 -18.625 29.5625 C-20.39842312 29.50928437 -22.17186058 29.45654393 -23.9453125 29.40429688 C-28.29706054 29.2750486 -32.64856061 29.13923848 -37 29 C-37 28.67 -37 28.34 -37 28 C-24.79 28 -12.58 28 0 28 C0 18.76 0 9.52 0 0 Z " fill="#8C5839" transform="translate(68,46)"/>
<path d="M0 0 C3 0.125 3 0.125 4 1.125 C4.125 4.125 4.125 4.125 4 7.125 C3 8.125 3 8.125 0 8.25 C-3 8.125 -3 8.125 -4 7.125 C-4.125 4.125 -4.125 4.125 -4 1.125 C-3 0.125 -3 0.125 0 0 Z " fill="#F0BB19" transform="translate(83,10.875)"/>
<path d="M0 0 C2.5625 0.1875 2.5625 0.1875 4.5625 2.1875 C4.00694444 6.74305556 4.00694444 6.74305556 2.5625 8.1875 C0.0625 8.3125 0.0625 8.3125 -2.4375 8.1875 C-3.4375 7.1875 -3.4375 7.1875 -3.5625 4.1875 C-3.39891479 0.26145498 -3.39891479 0.26145498 0 0 Z " fill="#FACD5C" transform="translate(14.4375,58.8125)"/>
<path d="M0 0 C2 2 2 2 2.08203125 4.09375 C1.99308594 4.8878125 1.90414062 5.681875 1.8125 6.5 C1.73644531 7.2940625 1.66039063 8.088125 1.58203125 8.90625 C1 11 1 11 -2 13 C-2 10.03 -2 7.06 -2 4 C-4.31 4 -6.62 4 -9 4 C-9 3.01 -9 2.02 -9 1 C-7.54364629 0.77825067 -6.08477044 0.57301302 -4.625 0.375 C-3.40683594 0.20097656 -3.40683594 0.20097656 -2.1640625 0.0234375 C-1.44992188 0.01570313 -0.73578125 0.00796875 0 0 Z " fill="#BD7740" transform="translate(68,25)"/>
<path d="M0 0 C0.66 0 1.32 0 2 0 C3.0625 1.875 3.0625 1.875 4 4 C3.67 4.66 3.34 5.32 3 6 C0.9375 6.625 0.9375 6.625 -1 7 C-1.625 5.1875 -1.625 5.1875 -2 3 C-1.34 2.01 -0.68 1.02 0 0 Z " fill="#99887C" transform="translate(54,50)"/>
<path d="M0 0 C0 3 0 3 -1 6 C-3 5 -3 5 -4 2 C-4.66 2 -5.32 2 -6 2 C-6 1.34 -6 0.68 -6 0 C-3.50907189 -1.24546405 -2.58919267 -0.7767578 0 0 Z " fill="#6C7169" transform="translate(72,38)"/>
<path d="M0 0 C1.98 0 3.96 0 6 0 C4.35830472 2.02054804 2.69088222 4.02043058 1 6 C0.67 6 0.34 6 0 6 C0 4.02 0 2.04 0 0 Z " fill="#6E7574" transform="translate(59,64)"/>
<path d="M0 0 C1.98 0.495 1.98 0.495 4 1 C3.67 2.32 3.34 3.64 3 5 C1.68 4.67 0.36 4.34 -1 4 C-0.67 2.68 -0.34 1.36 0 0 Z " fill="#FCFCFE" transform="translate(17,49)"/>
<path d="M0 0 C2.475 0.495 2.475 0.495 5 1 C5.33 2.32 5.66 3.64 6 5 C4.35 4.67 2.7 4.34 1 4 C0.67 2.68 0.34 1.36 0 0 Z " fill="#9C626E" transform="translate(71,33)"/>
<path d="M0 0 C0.66 0.66 1.32 1.32 2 2 C1.9765625 4.1640625 1.9765625 4.1640625 1.625 6.625 C1.45871094 7.85089844 1.45871094 7.85089844 1.2890625 9.1015625 C1.14597656 10.04128906 1.14597656 10.04128906 1 11 C0.67 11 0.34 11 0 11 C0 8.03 0 5.06 0 2 C-2.97 2 -5.94 2 -9 2 C-9 1.67 -9 1.34 -9 1 C-7.54364629 0.77825067 -6.08477044 0.57301302 -4.625 0.375 C-3.40683594 0.20097656 -3.40683594 0.20097656 -2.1640625 0.0234375 C-1.44992188 0.01570313 -0.73578125 0.00796875 0 0 Z " fill="#89593E" transform="translate(68,25)"/>
<path d="M0 0 C1.32 0 2.64 0 4 0 C4 1.32 4 2.64 4 4 C2.68 4 1.36 4 0 4 C0 2.68 0 1.36 0 0 Z " fill="#8788B8" transform="translate(23,85)"/>
<path d="M0 0 C1.32 0 2.64 0 4 0 C4 1.32 4 2.64 4 4 C2.68 4 1.36 4 0 4 C0 2.68 0 1.36 0 0 Z " fill="#8788B8" transform="translate(85,22)"/>
<path d="M0 0 C0.66 0 1.32 0 2 0 C2 0.66 2 1.32 2 2 C1.34 2 0.68 2 0 2 C0 1.34 0 0.68 0 0 Z " fill="#F0BB18" transform="translate(76,12)"/>
</svg>
