<?xml version="1.0" encoding="UTF-8"?>
<svg version="1.1" xmlns="http://www.w3.org/2000/svg" width="512" height="512">
<path d="M0 0 C0.87398438 0.76441406 1.74796875 1.52882812 2.6484375 2.31640625 C5.12693283 4.51579174 7.57064563 6.74656439 10 9 C10.60328125 9.54914063 11.2065625 10.09828125 11.828125 10.6640625 C21.32328469 19.67115323 28.40783061 30.79483447 35 42 C35.55945313 42.86496094 36.11890625 43.72992188 36.6953125 44.62109375 C38.76729185 48.39904412 38.47490551 50.72585039 38 55 C36.4375 57.5 36.4375 57.5 34 59 C29.93153158 59.66574938 27.90731624 59.63512137 24.5 57.25 C21.40695255 53.68648902 19.3213671 49.39683704 17.00390625 45.3125 C7.5572449 29.69696623 -5.24079716 16.59237817 -20 6 C-20.54462891 5.6071582 -21.08925781 5.21431641 -21.65039062 4.80957031 C-65.14874559 -26.03902121 -123.1368579 -31.37810792 -174.875 -28.25 C-175.58588776 -28.20709839 -176.29677551 -28.16419678 -177.02920532 -28.11999512 C-219.21464545 -25.48968559 -262.00302408 -14.59380138 -295 13 C-295.55510254 13.4640625 -296.11020508 13.928125 -296.68212891 14.40625 C-330.23617485 42.90947576 -345.41793771 86.81095359 -349.49609375 129.57421875 C-352.94380032 173.85931031 -349.13757917 221.72395825 -332 263 C-331.45472656 262.32195312 -330.90945313 261.64390625 -330.34765625 260.9453125 C-325.77219616 255.29833441 -321.1038623 249.82452676 -316.171875 244.484375 C-313.99040294 241.98902207 -312.11579555 239.38073923 -310.1875 236.6875 C-306.14525905 231.64058557 -302.13464384 229.7156138 -296.07324219 227.70410156 C-293.52231675 226.8377722 -291.00151916 225.90023841 -288.4765625 224.9609375 C-284.58288802 223.51781844 -280.68700879 222.08200254 -276.78125 220.671875 C-275.95689453 220.3737793 -275.13253906 220.07568359 -274.28320312 219.76855469 C-263.8286289 216.24941443 -251.5850075 216.54982488 -241.65234375 221.38671875 C-229.18906407 228.9674765 -224.53421867 239.32704002 -219.6875 252.625 C-219.23310547 253.82640625 -218.77871094 255.0278125 -218.31054688 256.265625 C-217.66762695 258.00972656 -217.66762695 258.00972656 -217.01171875 259.7890625 C-216.62459717 260.83787598 -216.23747559 261.88668945 -215.83862305 262.96728516 C-214.95195352 266.17375062 -214.698135 268.69077236 -215 272 C-217.63211465 275.66900829 -219.08854326 276.84009531 -223.5625 277.625 C-227 277 -227 277 -228.9375 275.19921875 C-231.96310036 270.50610002 -233.60000483 265.43975304 -235.4375 260.1875 C-240.17222356 245.83182311 -240.17222356 245.83182311 -251 236 C-263.86829131 231.71056956 -276.15558949 238.26809081 -288 243 C-286.05014117 249.72188764 -283.8888648 256.32947236 -281.5078125 262.91015625 C-281.16985657 263.85023026 -280.83190063 264.79030426 -280.48370361 265.75886536 C-279.36713666 268.86116773 -278.24628256 271.96189916 -277.125 275.0625 C-276.73483704 276.14412415 -276.34467407 277.22574829 -275.94268799 278.34014893 C-269.49545818 296.21290692 -262.95295595 314.04999958 -256.375 331.875 C-255.93711151 333.06177338 -255.49922302 334.24854675 -255.04806519 335.47128296 C-254.16919327 337.85319205 -253.29030237 340.23509415 -252.41139221 342.61698914 C-242.43654004 369.65042941 -242.43654004 369.65042941 -237.7510376 382.46881104 C-237.0476739 384.39080027 -236.34258297 386.31215838 -235.63568115 388.23284912 C-234.67314354 390.84890725 -233.71661592 393.46708269 -232.76171875 396.0859375 C-232.47847244 396.85176147 -232.19522614 397.61758545 -231.90339661 398.40661621 C-230.81618452 401.40574449 -230 403.7832645 -230 407 C-210.20195589 401.79678427 -210.20195589 401.79678427 -195.83984375 388.8671875 C-192.45312796 381.33765192 -193.61071427 373.93861586 -196.33636475 366.39100647 C-196.67653625 365.5001384 -197.01670776 364.60927032 -197.3671875 363.69140625 C-197.71799377 362.73435287 -198.06880005 361.7772995 -198.43023682 360.79124451 C-199.5638411 357.70935337 -200.71950372 354.63624102 -201.875 351.5625 C-202.65642534 349.44396364 -203.4362046 347.32481941 -204.21435547 345.20507812 C-207.54241331 336.16291109 -210.93170696 327.14521562 -214.390625 318.15234375 C-214.86758841 316.90235321 -215.34432554 315.65227631 -215.82080078 314.40209961 C-216.66289251 312.20544138 -217.51963698 310.01431861 -218.39404297 307.83032227 C-220.49999293 302.36048424 -221.57696172 298.72124758 -220 293 C-218.9375 291.0625 -218.9375 291.0625 -217 290 C-210.04241684 289.2269352 -210.04241684 289.2269352 -207.12353516 291.39160156 C-203.97565711 295.25822941 -202.64256475 299.56409836 -200.98828125 304.23046875 C-200.61824982 305.24609894 -200.24821838 306.26172913 -199.86697388 307.30813599 C-198.6714405 310.59749037 -197.4917753 313.89228598 -196.3125 317.1875 C-195.50038953 319.43223202 -194.68731982 321.67661723 -193.87329102 323.9206543 C-191.91370358 329.3296601 -189.96622484 334.74292801 -188.02233887 340.15759277 C-186.64156662 343.99655179 -185.24793571 347.83075701 -183.8515625 351.6640625 C-180.7176007 360.28918976 -180.7176007 360.28918976 -179.43359375 363.86328125 C-179.17634521 364.57782471 -178.91909668 365.29236816 -178.65405273 366.02856445 C-175.15726825 376.56851769 -176.11943471 388.07389256 -181 398 C-188.63318441 410.1648492 -199.32121808 414.94151854 -212.33862305 419.57958984 C-214.56823802 420.37705231 -216.78687608 421.20082202 -219.00585938 422.02734375 C-220.44212867 422.54847536 -221.87896007 423.06806094 -223.31640625 423.5859375 C-224.29487267 423.95143204 -224.29487267 423.95143204 -225.29310608 424.3243103 C-232.44087486 426.82627749 -238.74714534 426.2209655 -246.1328125 424.90625 C-247.09331009 424.73977966 -247.09331009 424.73977966 -248.07321167 424.56994629 C-250.09164705 424.21963144 -252.10839891 423.86071256 -254.125 423.5 C-256.79330226 423.02522446 -259.46258958 422.55779073 -262.1328125 422.09375 C-263.30730957 421.88427734 -264.48180664 421.67480469 -265.69189453 421.45898438 C-268.84577201 421.02139842 -271.82120476 420.91547363 -275 421 C-275.103125 421.928125 -275.20625 422.85625 -275.3125 423.8125 C-276.2397834 428.11172305 -276.2397834 428.11172305 -279 430 C-281.68582279 430.33422234 -284.06563274 430.47554662 -286.75 430.4375 C-287.50788818 430.42847656 -288.26577637 430.41945313 -289.04663086 430.41015625 C-308.71577723 429.81915842 -326.20471785 420.5675746 -340 407 C-348.24765473 398.04579165 -353.99140051 387.87049941 -358.34765625 376.55859375 C-358.72683701 375.59204361 -359.10601776 374.62549347 -359.49668884 373.62965393 C-360.29165056 371.59685441 -361.08217248 369.56231345 -361.8684082 367.52612305 C-363.05186355 364.46501211 -364.25230759 361.41098726 -365.45507812 358.35742188 C-372.62930285 340.01456162 -379.71365957 321.79325437 -378.76782227 301.78540039 C-378.20088499 288.99200052 -380.06404623 278.08838247 -383.65161133 265.84594727 C-386.58436718 255.81364701 -388.85823973 245.76762778 -390.8125 235.5 C-391.03262756 234.34466263 -391.03262756 234.34466263 -391.25720215 233.16598511 C-396.51740385 205.33619837 -399.41110486 177.64991522 -399.3125 149.3125 C-399.31067719 148.21882111 -399.30885437 147.12514221 -399.30697632 145.99832153 C-399.26074639 129.48911551 -398.78845736 113.30907502 -396 97 C-395.74259033 95.44466553 -395.74259033 95.44466553 -395.47998047 93.85791016 C-389.78817959 60.38361025 -378.68107475 24.15167024 -356 -2 C-352.90826248 -3.54586876 -350.40570448 -3.29359521 -347 -3 C-344.5625 -1.4375 -344.5625 -1.4375 -343 1 C-342.06939158 7.75960118 -344.62086066 11.20889373 -348.3125 16.5 C-371.24935886 51.17032579 -381.9944097 93.87026469 -382.203125 135.265625 C-382.21018463 136.20905762 -382.21724426 137.15249023 -382.22451782 138.12451172 C-382.35032823 159.93105361 -382.08023747 181.37416613 -379 203 C-378.90525391 203.66892273 -378.81050781 204.33784546 -378.71289062 205.02703857 C-375.21781394 229.46759015 -370.29063066 253.97535306 -362.88354492 277.55395508 C-361.98782073 281.04750219 -361.81144919 283.87131523 -361.91015625 287.46484375 C-361.93287598 288.66834473 -361.9555957 289.8718457 -361.97900391 291.11181641 C-362.00655762 292.37429199 -362.03411133 293.63676758 -362.0625 294.9375 C-362.21909199 316.49676647 -356.86045277 333.03165419 -349 353 C-348.52369141 354.22009766 -348.04738281 355.44019531 -347.55664062 356.69726562 C-346.13517403 360.32478698 -344.69688104 363.94504724 -343.25 367.5625 C-342.81494141 368.66118408 -342.37988281 369.75986816 -341.93164062 370.8918457 C-335.35429854 387.06529106 -326.16316573 400.31996551 -310 408 C-305.36944234 409.78049804 -300.70182121 411.41607347 -296 413 C-310.41011657 373.09185477 -310.41011657 373.09185477 -324.98431396 333.24343872 C-326.06843351 330.29637035 -327.15004033 327.34839096 -328.23095703 324.40014648 C-331.78771546 314.70395107 -335.36324235 305.01556126 -338.98484802 295.34336853 C-340.80931336 290.46135725 -342.61929352 285.57404092 -344.42721558 280.68588257 C-345.28876559 278.36662452 -346.15640449 276.04961637 -347.03103638 273.73526001 C-356.33310828 249.10652903 -361.58628219 224.0680026 -365 198 C-365.11859375 197.13294434 -365.2371875 196.26588867 -365.359375 195.37255859 C-371.88310826 145.94945441 -367.44483018 90.13315399 -343 46 C-342.35592456 44.79081497 -341.71269216 43.58118051 -341.0703125 42.37109375 C-320.55061249 4.40576732 -283.59411047 -21.28593797 -242.984375 -33.91015625 C-229.16448617 -38.03043858 -215.27025198 -40.96637507 -201 -43 C-200.22672363 -43.11182617 -199.45344727 -43.22365234 -198.65673828 -43.33886719 C-133.16370948 -52.49085755 -51.67646453 -45.51688594 0 0 Z M-303 254 C-308.68571868 259.85070605 -313.90151208 266.15930044 -318.96875 272.546875 C-321 275 -321 275 -322.78125 276.640625 C-324.50675753 278.10507569 -324.50675753 278.10507569 -326 281 C-325.67876213 283.44321185 -325.67876213 283.44321185 -324.82763672 286.07788086 C-324.53612732 287.06021698 -324.24461792 288.0425531 -323.9442749 289.05465698 C-322.57308987 293.33160032 -321.08459227 297.54878646 -319.5078125 301.75390625 C-319.00006287 303.12715057 -319.00006287 303.12715057 -318.48205566 304.52813721 C-317.36730287 307.5411918 -316.2463007 310.5518767 -315.125 313.5625 C-313.50751416 317.92080306 -311.89357279 322.28040946 -310.28125 326.640625 C-309.64795273 328.35213493 -309.64795273 328.35213493 -309.00186157 330.09822083 C-305.94997396 338.36814265 -302.96107348 346.65899929 -300.00214005 354.96248055 C-299.28533044 356.97293051 -298.56700631 358.98283235 -297.84811401 360.99253845 C-297.61284563 361.65031816 -297.37757725 362.30809786 -297.13517952 362.98581028 C-296.66315223 364.30546951 -296.19107987 365.62511262 -295.71896172 366.94473934 C-294.32866865 370.83383645 -292.94830709 374.72629362 -291.57439804 378.62120628 C-290.50897947 381.63214919 -289.42900618 384.63787457 -288.3515625 387.64453125 C-287.96995972 388.73711243 -287.58835693 389.8296936 -287.19519043 390.9553833 C-286.83252075 391.95986511 -286.46985107 392.96434692 -286.09619141 393.99926758 C-285.7863028 394.87295486 -285.47641418 395.74664215 -285.15713501 396.64680481 C-283.80642006 399.39367176 -282.34385592 401.04049093 -280 403 C-277.38653995 403.68505331 -275.04663438 404.14830166 -272.390625 404.484375 C-271.66381531 404.58969543 -270.93700562 404.69501587 -270.18817139 404.80352783 C-267.87734616 405.13472851 -265.56410436 405.44263923 -263.25 405.75 C-261.6781692 405.9711247 -260.10655073 406.19376437 -258.53515625 406.41796875 C-254.69234221 406.96289094 -250.84719434 407.4869563 -247 408 C-248.42997121 400.13077193 -251.12389269 392.85427634 -253.93261719 385.39916992 C-255.50618536 381.22030727 -257.05854146 377.03355243 -258.61328125 372.84765625 C-258.95541656 371.92779938 -259.29755188 371.0079425 -259.65005493 370.06021118 C-264.11650526 358.02969086 -268.46147495 345.95504973 -272.8193512 333.8848877 C-280.47120826 312.69497133 -288.18469124 291.52934789 -296.00564575 270.40127563 C-298.02522244 264.94194414 -300.01966585 259.47367553 -302 254 C-302.33 254 -302.66 254 -303 254 Z " fill="#f9a596" transform="translate(409,82)"/>
<path d="M0 0 C1.86900719 -0.00855011 1.86900719 -0.00855011 3.77577209 -0.01727295 C6.4070655 -0.02667017 9.0383704 -0.03323577 11.66967773 -0.03710938 C15.59055717 -0.04670467 19.51088621 -0.07773408 23.43164062 -0.109375 C46.26425303 -0.20595471 68.99723878 1.33800114 91.41015625 5.890625 C92.68503906 6.14553711 93.95992188 6.40044922 95.2734375 6.66308594 C132.4559916 14.29679663 169.54128365 29.52823475 197.375 55.9765625 C199.46979722 57.96330862 201.62288405 59.80333759 203.84765625 61.640625 C208.79063246 65.95065914 212.68896502 71.05831683 216.72265625 76.203125 C217.50511719 77.14671875 218.28757812 78.0903125 219.09375 79.0625 C245.34503269 111.48808437 257.11138348 153.39974335 261.72265625 194.203125 C261.86622559 195.42092651 261.86622559 195.42092651 262.01269531 196.66333008 C264.97422081 225.96810255 263.89239707 257.08183351 259.72265625 286.203125 C259.62319702 286.89865479 259.52373779 287.59418457 259.42126465 288.31079102 C256.16553368 310.87131287 252.47542814 333.91291626 245.62426758 355.6953125 C243.04983673 363.89539348 242.31355411 370.89336848 242.66015625 379.453125 C242.99358394 398.3443335 239.49045196 413.6606756 232.72265625 431.203125 C232.22328998 432.50758082 231.72411584 433.8121102 231.22509766 435.11669922 C229.5511668 439.48446807 227.85833133 443.8447339 226.16015625 448.203125 C225.88697571 448.90736603 225.61379517 449.61160706 225.33233643 450.33718872 C215.66132712 475.19250179 203.62331669 495.28252767 178.31640625 506.74609375 C175.14473486 508.00957499 171.96908075 509.14803704 168.72265625 510.203125 C167.624375 510.57244141 167.624375 510.57244141 166.50390625 510.94921875 C161.36775745 512.38141409 156.14659093 512.43314054 150.84765625 512.515625 C150.09709961 512.53343018 149.34654297 512.55123535 148.57324219 512.56958008 C143.2563504 512.56175049 143.2563504 512.56175049 140.7578125 510.8828125 C139.25045904 508.43691821 139.03621599 506.02516268 138.72265625 503.203125 C129.46750047 503.81992944 120.4890742 505.17069755 111.37109375 506.83007812 C110.36820312 507.00603516 109.3653125 507.18199219 108.33203125 507.36328125 C107.44483398 507.52449463 106.55763672 507.68570801 105.64355469 507.85180664 C98.82669024 508.67172205 93.55075927 508.22628838 87.109375 505.859375 C86.41431351 505.61199585 85.71925201 505.3646167 85.00312805 505.10974121 C83.54116905 504.5848382 82.08155478 504.0533622 80.62426758 503.515625 C78.43336496 502.71164177 76.2327198 501.94076881 74.02929688 501.171875 C61.22801379 496.58549106 50.38212581 490.61136743 43.72265625 478.203125 C38.23019307 466.27325873 40.11754741 455.03234824 44.25 443.12109375 C44.60846008 442.06833755 44.96692017 441.01558136 45.33624268 439.93092346 C49.04714472 429.10587443 52.98823802 418.36731564 56.97265625 407.640625 C58.54764763 403.38618229 60.11991945 399.13073833 61.69140625 394.875 C62.09631287 393.7792717 62.50121948 392.6835434 62.918396 391.55461121 C65.79641395 383.75259347 68.63300378 375.93612854 71.44791412 368.11115837 C72.57402419 364.98181219 73.70284541 361.85344337 74.83105469 358.72485352 C76.14158697 355.09008125 77.44980301 351.45457094 78.75012207 347.81613159 C92.12515228 310.40041749 92.12515228 310.40041749 109.05078125 302.3671875 C123.69074651 295.98895702 138.76217432 301.85023015 152.72265625 307.203125 C154.21928941 307.74689539 155.71664186 308.28869181 157.21484375 308.828125 C163.49893535 311.16518386 168.13133606 313.13166676 172.72265625 318.203125 C173.50125 319.03070313 174.27984375 319.85828125 175.08203125 320.7109375 C182.30158124 328.61469321 189.04166418 336.84439501 195.72265625 345.203125 C205.44108597 324.31883985 208.83169419 300.87910867 211.72265625 278.203125 C211.84125 277.28096191 211.95984375 276.35879883 212.08203125 275.40869141 C216.45254891 239.63158185 215.0457972 201.91599658 204.55859375 167.32421875 C203.38912179 162.95782577 203.5879339 159.27232458 205.78515625 155.265625 C208.91293611 153.55039088 212.30970827 153.37117799 215.72265625 154.203125 C220.51708054 157.50212395 221.34520133 162.54859329 222.72265625 167.890625 C222.97684326 168.8501709 223.23103027 169.8097168 223.49291992 170.79833984 C229.06078388 192.65814318 230.95786049 214.60236332 230.97265625 237.078125 C230.97333099 238.00319855 230.97400574 238.92827209 230.97470093 239.88137817 C230.94495041 265.7167868 228.31521302 290.93960404 222.72265625 316.203125 C222.50064041 317.22903244 222.50064041 317.22903244 222.2741394 318.27566528 C218.86097844 333.79574318 213.53578092 348.50607573 208.03515625 363.390625 C207.09252986 365.96100844 206.15299783 368.5325198 205.21337891 371.10400391 C203.07245799 376.95786139 200.92172838 382.80805296 198.76602936 388.6564827 C196.50623249 394.78793638 194.25652921 400.92306988 192.0078125 407.05859375 C189.45826998 414.0115443 186.9047817 420.96302204 184.34605408 427.91259766 C178.90591953 442.68817791 173.498875 457.47578053 168.09765625 472.265625 C167.67321228 473.42777527 167.24876831 474.58992554 166.8114624 475.78729248 C164.44793587 482.2590209 162.08494475 488.73094457 159.72265625 495.203125 C162.24722866 494.30243909 164.76692819 493.39078334 167.28515625 492.47265625 C167.98962891 492.22261841 168.69410156 491.97258057 169.41992188 491.71496582 C183.25716365 486.63360543 193.89591578 477.36774863 200.4375 464.1796875 C200.9527121 463.14310753 200.9527121 463.14310753 201.47833252 462.08558655 C205.41244559 454.00647274 208.70625877 445.68096122 211.94238281 437.30297852 C212.97466981 434.63542171 214.02364318 431.97485252 215.07421875 429.31445312 C223.40356539 408.40170328 223.40356539 408.40170328 225.5390625 386.23046875 C224.83033385 368.39794147 227.59133103 354.05134823 232.67089844 336.93066406 C238.25358184 317.14505352 241.21804665 296.57186256 243.72265625 276.203125 C243.84125 275.2965918 243.95984375 274.39005859 244.08203125 273.45605469 C251.79254353 212.988198 245.19068898 142.30645425 207.72265625 92.203125 C207.04332031 91.28402344 206.36398437 90.36492187 205.6640625 89.41796875 C190.25302259 69.63706875 170.92602434 54.6141778 148.72265625 43.203125 C148.07570801 42.86474609 147.42875977 42.52636719 146.76220703 42.17773438 C112.31790684 24.34613923 71.40102853 17.14643508 32.84765625 17 C31.64367187 16.99429993 30.4396875 16.98859985 29.19921875 16.98272705 C26.65788636 16.97333324 24.11654211 16.96676561 21.57519531 16.96289062 C17.78817873 16.95329109 14.00173101 16.92225653 10.21484375 16.890625 C-49.53694689 16.63098273 -109.01493476 30.55492176 -154.8359375 70.4296875 C-158.66454477 73.21078782 -160.63392642 72.86647033 -165.27734375 72.203125 C-167.83984375 70.140625 -167.83984375 70.140625 -169.27734375 67.203125 C-169.64241777 63.40635519 -169.05388145 61.23651748 -166.75390625 58.17578125 C-126.36092754 15.38398579 -56.38982928 0.20668083 0 0 Z M104.72265625 326.203125 C103.27819794 328.98316813 102.16498812 331.85647948 101.05859375 334.78515625 C100.55626724 336.07786186 100.55626724 336.07786186 100.04379272 337.39668274 C95.51371485 349.1662328 91.2918928 361.05340317 87.04883575 372.92861557 C84.88241727 378.99059181 82.70997743 385.05040895 80.53515625 391.109375 C80.29281879 391.7849262 80.05048134 392.46047741 79.80080032 393.15649986 C76.37081055 402.71160389 72.86242454 412.23325356 69.28515625 421.734375 C68.44179838 423.98474587 67.59853421 426.23515186 66.75537109 428.4855957 C65.56621962 431.65777086 64.3719011 434.82739606 63.15899658 437.99057007 C62.05395531 440.87265931 60.96866145 443.76152008 59.88671875 446.65234375 C59.40090332 447.89213989 59.40090332 447.89213989 58.90527344 449.15698242 C56.45375151 455.79419558 55.6798727 462.24159553 57.5 469.15625 C63.67888536 481.38919475 75.49447613 484.32991608 87.66723633 488.65576172 C90.0123623 489.37468101 90.0123623 489.37468101 93.72265625 489.203125 C93.94577484 488.58530655 94.16889343 487.9674881 94.39877319 487.33094788 C113.30242919 434.99308896 113.30242919 434.99308896 122.70889282 409.43997192 C123.786359 406.51235698 124.86250767 403.58426109 125.93823242 400.65600586 C126.66584028 398.67561387 127.39346082 396.69522653 128.12109375 394.71484375 C128.48360733 393.72818222 128.84612091 392.74152069 129.21961975 391.72496033 C131.29556119 386.07738542 133.37624707 380.43158769 135.46191406 374.78759766 C137.59526279 369.01437675 139.72169803 363.23865525 141.84110546 357.4603014 C142.98309833 354.34763977 144.12939384 351.23667375 145.2817688 348.12783813 C146.55571697 344.68984253 147.81822295 341.24785062 149.078125 337.8046875 C149.46356476 336.77281815 149.84900452 335.74094879 150.24612427 334.67781067 C150.58924652 333.73306381 150.93236877 332.78831696 151.28588867 331.81494141 C151.58911545 330.99232819 151.89234222 330.16971497 152.20475769 329.32217407 C152.96275509 327.03606028 152.96275509 327.03606028 151.72265625 324.203125 C148.46826184 322.40230829 144.90737859 321.26702362 141.41015625 320.015625 C140.40645996 319.65629883 139.40276367 319.29697266 138.36865234 318.92675781 C125.00225118 314.35375699 113.48276249 313.7758879 104.72265625 326.203125 Z M165.72265625 336.203125 C165.47812714 336.88295441 165.23359802 337.56278381 164.98165894 338.26321411 C144.14706886 396.17934183 144.14706886 396.17934183 136.53515625 416.765625 C136.0074698 418.19392269 135.47980061 419.62222676 134.95214844 421.05053711 C134.13607271 423.25906118 133.31990464 425.46755103 132.50357056 427.67597961 C128.54654815 438.38225609 124.59760807 449.09147069 120.66464233 459.80661011 C119.79146214 462.18286212 118.91650191 464.55846084 118.03970337 466.93338013 C116.8175463 470.24431898 115.60144056 473.55742113 114.38671875 476.87109375 C113.83006279 478.37284653 113.83006279 478.37284653 113.26216125 479.90493774 C112.92637558 480.82471405 112.5905899 481.74449036 112.24462891 482.69213867 C111.80166977 483.89588387 111.80166977 483.89588387 111.34976196 485.12394714 C110.57827436 487.31987668 110.57827436 487.31987668 110.72265625 490.203125 C115.35232561 489.58573412 119.97822321 488.94634238 124.60205078 488.28662109 C126.17445561 488.06541564 127.74771277 487.85018151 129.32177734 487.64111328 C131.58813546 487.33902765 133.85053057 487.01539035 136.11328125 486.6875 C137.16506561 486.55441437 137.16506561 486.55441437 138.23809814 486.41864014 C142.76960051 485.73380791 144.79162929 484.66879446 147.72265625 481.203125 C148.96739964 478.76271251 148.96739964 478.76271251 149.87890625 476.0222168 C150.25519165 474.9768425 150.63147705 473.9314682 151.01916504 472.85441589 C151.41631714 471.71523209 151.81346924 470.57604828 152.22265625 469.40234375 C152.88088367 467.56069283 153.53911172 465.71904214 154.19736481 463.8774004 C155.13939718 461.23229234 156.07066979 458.58343952 157.00241089 455.93469238 C158.94662808 450.41697418 160.91382757 444.90735693 162.87547302 439.3958168 C163.63364413 437.26402196 164.39018733 435.1316541 165.14660645 432.99923706 C168.34721286 423.98839328 171.62246649 415.00820285 174.96420288 406.04877663 C175.68344363 404.11902033 176.40039047 402.18842896 177.11645508 400.25749207 C177.3479274 399.63339227 177.57939972 399.00929247 177.81788635 398.36628056 C178.04685104 397.74887721 178.27581573 397.13147387 178.51171875 396.49536133 C179.85920818 392.86274034 181.2115943 389.23240143 182.58105469 385.60800171 C183.84120982 382.27008664 185.08083513 378.92520236 186.31640625 375.578125 C186.88337219 374.10258904 186.88337219 374.10258904 187.46179199 372.59724426 C187.79215454 371.69116928 188.12251709 370.7850943 188.46289062 369.8515625 C188.90296448 368.67859619 188.90296448 368.67859619 189.35192871 367.48193359 C189.84203516 364.46932011 189.10191076 362.89023861 187.72265625 360.203125 C186.0776842 358.24040621 184.43717841 356.41030971 182.66015625 354.578125 C178.00780361 349.66195133 173.70167314 344.59613188 169.5 339.28515625 C167.88877009 337.12371917 167.88877009 337.12371917 165.72265625 336.203125 Z " fill="#f9a596" transform="translate(239.27734375,-0.203125)"/>
</svg>
