<?xml version="1.0" encoding="UTF-8"?>
<svg version="1.1" xmlns="http://www.w3.org/2000/svg" width="512" height="512">
<path d="M0 0 C2.4956681 2.44736484 4.2846134 4.96054937 6 8 C6.4125 8.72058594 6.825 9.44117187 7.25 10.18359375 C14.66098446 26.26645934 9.99646433 47.0648941 4.234375 62.96875 C-2.28524509 80.24180784 -10.58751005 97.26836664 -23.26049805 110.88452148 C-23.77708575 111.44139113 -24.29367346 111.99826078 -24.82591534 112.57200527 C-30.97125198 119.12801556 -37.43320841 125.35732448 -43.8926487 131.60103035 C-48.49463507 136.0605952 -53.06140165 140.55631689 -57.63568592 145.04425907 C-61.63554134 148.96462223 -65.64655859 152.87223731 -69.68188477 156.75610352 C-73.62102366 160.54878263 -77.52744298 164.3725415 -81.41376305 168.21929741 C-82.89069266 169.66980414 -84.37910494 171.10871867 -85.87919044 172.53526497 C-87.97140445 174.52809577 -90.01918836 176.55830086 -92.06176758 178.60180664 C-92.68236053 179.17408997 -93.30295349 179.74637329 -93.94235229 180.33599854 C-96.48626642 182.95541236 -97.89147394 184.82174011 -98.23191738 188.51791096 C-98.01225056 191.72934027 -97.5407719 194.82650236 -97 198 C-96.71581989 199.97937761 -96.43165851 201.95875795 -96.14790553 203.93819684 C-95.58393059 207.77881651 -94.96348374 211.61042849 -94.35131836 215.44360352 C-94.07806551 217.17535085 -93.80519858 218.90715911 -93.53268433 220.63902283 C-92.79437999 225.32402606 -92.05072879 230.00816641 -91.30611491 234.69217038 C-90.5179068 239.65657568 -89.73476672 244.62178048 -88.95106506 249.5868988 C-87.45892105 259.03548096 -85.96239069 268.48336279 -84.46422058 277.93099111 C-82.7912233 288.48224207 -81.12264358 299.03418972 -79.45467257 309.58623624 C-78.64025116 314.73829385 -77.82556194 319.89030912 -77.01089478 325.04232788 C-76.68954067 327.07463961 -76.36818675 329.10695136 -76.04683304 331.13926315 C-75.88870778 332.1392696 -75.73058251 333.13927604 -75.56766558 334.1695857 C-75.249195 336.18364381 -74.9307285 338.19770256 -74.61226606 340.21176195 C-73.52931026 347.06064017 -72.44613339 353.90948339 -71.36279297 360.75830078 C-71.2156972 361.68835096 -71.06860143 362.61840113 -70.91704822 363.57663465 C-69.25325578 374.09561614 -67.58534434 384.61392034 -65.90867138 395.13085651 C-65.13052354 400.01504525 -64.3556267 404.89974549 -63.58160591 409.78458977 C-63.24374121 411.91116746 -62.90424288 414.0374864 -62.5629406 416.16351509 C-62.11280397 418.96766951 -61.66811709 421.77263321 -61.22485352 424.57788086 C-61.09735529 425.36222189 -60.96985706 426.14656292 -60.83849525 426.95467186 C-60.52411007 428.96463383 -60.25969242 430.98224257 -60 433 C-59.85356552 434.02848557 -59.70713104 435.05697113 -59.55625916 436.11662292 C-60.21808877 440.41711578 -62.86441439 442.65408643 -65.875 445.55615234 C-66.49922852 446.18125702 -67.12345703 446.80636169 -67.76660156 447.45040894 C-69.83049662 449.51012863 -71.91481595 451.54779143 -74 453.5859375 C-75.43619967 455.01094502 -76.87107906 456.43728432 -78.3046875 457.86489868 C-82.07935377 461.61666888 -85.87169041 465.3500727 -89.66796875 469.07995605 C-93.53946354 472.8900468 -97.39400424 476.71720423 -101.25 480.54296875 C-108.8168213 488.04546347 -116.40241672 495.52866776 -124 503 C-126.70013597 499.55742058 -128.28859812 496.12454247 -129.80078125 492.046875 C-130.0690976 491.34054932 -130.33741394 490.63422363 -130.61386108 489.90649414 C-131.20416157 488.35138733 -131.79168085 486.79522271 -132.37680054 485.23815918 C-134.0305509 480.84059959 -135.70787734 476.45202482 -137.3828125 472.0625 C-137.74664536 471.10768738 -138.11047821 470.15287476 -138.4853363 469.16912842 C-143.13257787 456.99548523 -147.91351318 444.87435479 -152.6875 432.75 C-153.63230571 430.34882031 -154.57704819 427.94761574 -155.52172852 425.54638672 C-156.94650453 421.92511599 -158.37140577 418.3038948 -159.79670715 414.68283081 C-164.20902188 403.47259647 -168.61053877 392.2581429 -173.00817871 381.04214478 C-174.24122119 377.89738951 -175.47460016 374.75276636 -176.70800781 371.6081543 C-180.83722001 361.07879223 -184.95988855 350.54690513 -189.07421875 340.01171875 C-189.90005149 337.8979439 -190.72589763 335.78417429 -191.55175781 333.67041016 C-193.09561168 329.71885898 -194.63770262 325.76662644 -196.17871094 321.81396484 C-196.87819148 320.02308708 -197.57773245 318.23223293 -198.27734375 316.44140625 C-198.58169846 315.6592424 -198.88605316 314.87707855 -199.19963074 314.07121277 C-201.70189416 307.67306167 -204.34026938 301.33411499 -207 295 C-215.59686661 303.52741639 -224.18565936 312.06287325 -232.76418209 320.60874557 C-236.74760696 324.57650147 -240.73377981 328.54141317 -244.72631836 332.5 C-248.57780939 336.31894212 -252.42196787 340.14512414 -256.26111031 343.97647858 C-257.72854331 345.43836009 -259.19861818 346.89759455 -260.67133904 348.35414886 C-262.73053523 350.39163086 -264.78021431 352.43824496 -266.82788086 354.48730469 C-267.44143433 355.09007233 -268.05498779 355.69283997 -268.68713379 356.31387329 C-274.05297843 361.71946709 -274.15796482 365.76878946 -274.55664062 373.12988281 C-274.62760201 374.35506371 -274.62760201 374.35506371 -274.69999695 375.60499573 C-274.80208788 377.37658338 -274.90240142 379.14827416 -275.00114441 380.92005157 C-275.1576803 383.72878906 -275.3187995 386.53723099 -275.4810791 389.34564209 C-275.76662714 394.30062391 -276.04806663 399.25582921 -276.32818604 404.21112061 C-276.77579916 412.12806909 -277.22692859 420.04480854 -277.68315125 427.96126556 C-277.84111395 430.71959459 -277.99568505 433.4780995 -278.15002441 436.2366333 C-278.24765944 437.94194343 -278.34543069 439.64724577 -278.44335938 441.35253906 C-278.48494675 442.11230545 -278.52653412 442.87207184 -278.56938171 443.65486145 C-278.69280013 445.77182541 -278.84349232 447.88525675 -279 450 C-279.0360286 450.70520531 -279.07205721 451.41041061 -279.10917759 452.13698578 C-279.4975895 457.13454153 -280.67596889 459.5449049 -284.21264648 463.0390625 C-285.10704941 463.93939209 -286.00145233 464.83972168 -286.92295837 465.76733398 C-287.90515439 466.72042114 -288.8878788 467.67296402 -289.87109375 468.625 C-290.87516779 469.62108464 -291.87783841 470.61858578 -292.87916565 471.61743164 C-294.97293705 473.69900281 -297.07750388 475.76871865 -299.19165039 477.82958984 C-301.90532127 480.47509704 -304.59888905 483.13996251 -307.28573513 485.81268311 C-309.84919474 488.36104785 -312.42223203 490.89964909 -314.99609375 493.4375 C-315.73324521 494.16673676 -315.73324521 494.16673676 -316.48528862 494.91070557 C-317.87086885 496.2779039 -319.26422461 497.63720879 -320.65795898 498.99609375 C-321.44992172 499.77138428 -322.24188446 500.5466748 -323.05784607 501.34545898 C-325 503 -325 503 -327 503 C-330.2181699 496.4435823 -333.43448638 489.88625757 -336.6496582 483.32836914 C-337.73812284 481.10877065 -338.82697492 478.8893621 -339.91625977 476.67016602 C-346.95454612 462.33026712 -353.91440211 447.95613048 -360.78848267 433.53683472 C-363.73416026 427.36878662 -366.71216453 421.21627965 -369.6875 415.0625 C-370.3118905 413.77020236 -370.93623934 412.4778846 -371.56054688 411.18554688 C-373.03989246 408.12346961 -374.51977335 405.06165147 -376 402 C-378.34133859 401.77142848 -378.34133859 401.77142848 -380.55029297 404.40258789 C-381.61854995 405.50513483 -382.68219645 406.6121601 -383.7421875 407.72265625 C-384.9019063 408.91253589 -386.06207662 410.1019756 -387.22265625 411.29101562 C-389.05374241 413.17795459 -390.88070094 415.06845036 -392.69970703 416.96704102 C-394.45282644 418.79251515 -396.22110005 420.60213377 -397.9921875 422.41015625 C-398.80488602 423.27097557 -398.80488602 423.27097557 -399.63400269 424.14918518 C-403.40174362 427.96703514 -403.40174362 427.96703514 -406.09130859 428.11523438 C-408.63896559 426.6266571 -410.47961202 424.85526071 -412.546875 422.74609375 C-413.39121094 421.89208984 -414.23554688 421.03808594 -415.10546875 420.15820312 C-416.41451172 418.81145508 -416.41451172 418.81145508 -417.75 417.4375 C-418.63816406 416.53580078 -419.52632813 415.63410156 -420.44140625 414.70507812 C-422.63448315 412.47662902 -424.82026044 410.24148407 -427 408 C-425.38448553 403.91709903 -422.45360304 401.21566164 -419.37109375 398.2109375 C-418.8213942 397.66643951 -418.27169464 397.12194153 -417.70533752 396.5609436 C-415.95408824 394.82746221 -414.19628312 393.10083449 -412.4375 391.375 C-410.67604189 389.64115848 -408.91606377 387.90587817 -407.15895081 386.16763306 C-406.06658495 385.08752633 -404.97155704 384.01010397 -403.87364197 382.93563843 C-401.08448055 380.23686511 -401.08448055 380.23686511 -399 377 C-400.15048828 376.66355469 -400.15048828 376.66355469 -401.32421875 376.3203125 C-406.33220565 374.52148192 -411.03108089 372.2019168 -415.8125 369.875 C-416.89273438 369.35292969 -417.97296875 368.83085937 -419.0859375 368.29296875 C-422.08295504 366.84345294 -425.07830765 365.39060161 -428.07281494 363.93591309 C-431.41616531 362.3122572 -434.76093095 360.6915206 -438.10546875 359.0703125 C-442.31416852 357.02988407 -446.52269213 354.98909404 -450.73071289 352.94726562 C-475.76175558 340.7543945 -475.76175558 340.7543945 -501 329 C-499.14894795 319.14298862 -489.6502273 310.3924593 -483.1875 303.0625 C-482.73642883 302.54959286 -482.28535767 302.03668571 -481.82061768 301.50823593 C-465.84075028 283.6285972 -450.00340147 277.94156528 -426.30476475 276.33524418 C-411.79119972 275.52317173 -397.20288878 275.42124472 -382.67397404 275.81686687 C-380.439531 275.87265637 -378.20611833 275.90200384 -375.97113037 275.9254303 C-372 276 -372 276 -368.75982666 276.30491638 C-362.5586443 276.54269377 -359.1275773 274.71983907 -354.59864426 270.73593521 C-351.15580291 267.49220553 -347.8829426 264.09665926 -344.609375 260.68359375 C-343.17163413 259.22531274 -341.73142738 257.76945915 -340.28887939 256.31593323 C-336.51582098 252.50106265 -332.7769774 248.65432804 -329.04449463 244.79980469 C-325.22310262 240.86547765 -321.37001037 236.96246746 -317.51953125 233.05664062 C-309.98180911 225.4012779 -302.47989014 217.71184956 -295 210 C-297.39165153 208.40556565 -299.21177914 207.42488527 -301.83325195 206.40625 C-302.60738434 206.10339081 -303.38151672 205.80053162 -304.17910767 205.48849487 C-305.02363495 205.16229156 -305.86816223 204.83608826 -306.73828125 204.5 C-307.62905365 204.15260773 -308.51982605 203.80521545 -309.43759155 203.44729614 C-312.39462647 202.29491126 -315.35357531 201.1475229 -318.3125 200 C-320.39899302 199.18771888 -322.4853351 198.37504997 -324.5715332 197.56201172 C-328.90679803 195.87282503 -333.24270951 194.18531419 -337.57910156 192.49902344 C-346.35187731 189.08631004 -355.11744892 185.65522986 -363.88265991 182.22314453 C-366.71760005 181.1132153 -369.55274273 180.00380488 -372.38793945 178.89453125 C-387.82896771 172.85279867 -403.26555813 166.79976883 -418.70114136 160.74414062 C-430.43926441 156.13909745 -442.17856929 151.53712573 -453.921875 146.9453125 C-454.96666016 146.53674011 -456.01144531 146.12816772 -457.08789062 145.70721436 C-462.03158478 143.77405106 -466.97553619 141.84155015 -471.91992188 139.91015625 C-481.96468035 135.98436143 -491.99498203 132.0261295 -502 128 C-500.31598207 124.10617793 -497.76095259 120.9664551 -495.11303711 117.69580078 C-494.61243271 117.07443237 -494.11182831 116.45306396 -493.59605408 115.81286621 C-488.88411583 110.02522912 -483.95744894 104.43673744 -478.95213985 98.90196419 C-475.60613899 95.19090363 -472.36298408 91.45098479 -469.28295898 87.51513672 C-460.49356777 76.36536463 -449.79632431 63.61907517 -434.89893723 61.57437134 C-419.06088707 60.96557671 -403.07124427 65.28595931 -387.71738625 68.79990959 C-375.37881379 71.60737554 -362.99811951 73.76735247 -350.4934082 75.69384766 C-349.51765441 75.84444791 -348.54190062 75.99504816 -347.53657854 76.15021205 C-342.50875904 76.92416249 -337.47984886 77.69073864 -332.45043373 78.45424271 C-323.23301015 79.85740263 -314.02621858 81.32775115 -304.81846273 82.79275012 C-300.67854827 83.45081256 -296.53811951 84.10560744 -292.39770347 84.76050532 C-282.85461116 86.2701551 -273.31269982 87.78706361 -263.77172852 89.31005859 C-254.35060806 90.81388477 -244.92811483 92.30874327 -235.50387889 93.79292464 C-230.56729431 94.57071417 -225.63152143 95.35300382 -220.69742393 96.14643097 C-216.11584266 96.88310032 -211.53255199 97.60794639 -206.94762802 98.32350731 C-205.26986566 98.58753462 -203.59279118 98.85597582 -201.91648674 99.12910652 C-199.63497946 99.50019074 -197.35155474 99.85548375 -195.06694031 100.20684814 C-193.79079707 100.40955952 -192.51465384 100.61227089 -191.19983959 100.82112503 C-187.08673363 101.05105271 -185.42363141 100.21600878 -182.37002563 97.60774136 C-181.56932144 96.7984271 -181.56932144 96.7984271 -180.75244141 95.97276306 C-180.13322311 95.35195862 -179.51400482 94.73115417 -178.87602234 94.09153748 C-178.20795059 93.41156204 -177.53987885 92.73158661 -176.8515625 92.03100586 C-176.13873611 91.31365265 -175.42590973 90.59629944 -174.69148254 89.85720825 C-173.14352104 88.29828828 -171.5978395 86.73710185 -170.0541687 85.17393303 C-167.60247375 82.69204004 -165.14413248 80.21691217 -162.68383789 77.74354553 C-155.68933786 70.70934422 -148.7074031 63.66271991 -141.72900391 56.61254883 C-137.45792841 52.29848231 -133.17934769 47.99197032 -128.89642334 43.68966866 C-127.27336513 42.05611432 -125.65322288 40.41965694 -124.03619385 38.7801342 C-111.34509355 25.91293039 -98.97239959 15.56833736 -83 7 C-81.51886719 6.19755859 -81.51886719 6.19755859 -80.0078125 5.37890625 C-56.45392887 -6.90868887 -23.33534894 -18.04490955 0 0 Z M-74.75 37.6875 C-75.38607178 38.03635254 -76.02214355 38.38520508 -76.67749023 38.74462891 C-92.63111923 48.1760805 -105.53328354 64.42795156 -118.54198718 77.51387584 C-121.58423917 80.5729545 -124.62961416 83.62892117 -127.67471313 86.68516541 C-132.25865648 91.28638886 -136.84167025 95.88853479 -141.42357941 100.49178389 C-150.41693277 109.52691187 -159.41723687 118.55508801 -168.42007446 127.58076477 C-169.8409447 129.00530411 -171.26181241 130.42984597 -172.68267763 131.85439032 C-174.83491118 134.0121761 -176.98715355 136.16995308 -179.13941585 138.32771018 C-187.22949477 146.43845113 -195.31905086 154.54971318 -203.40771484 162.66186523 C-204.14618084 163.4024706 -204.88464684 164.14307596 -205.6454906 164.90612391 C-217.64238677 176.93835203 -229.63013023 188.97966345 -241.61504404 201.02382531 C-253.93629288 213.40546727 -266.26893748 225.77567651 -278.6118561 238.13571674 C-286.21801878 245.75322091 -293.81486907 253.37977794 -301.40004034 261.01818565 C-306.59040223 266.24334048 -311.7916259 271.45751523 -317.00160973 276.66310479 C-320.00769242 279.6673253 -323.00862473 282.6762661 -325.99666595 285.69844055 C-328.73100647 288.4638127 -331.47878991 291.21503868 -334.23799236 293.95559845 C-335.23424041 294.95000203 -336.22541032 295.94952436 -337.21093564 296.95455595 C-345.50249477 305.40100552 -345.50249477 305.40100552 -349.88813782 306.07711601 C-350.91505234 306.05166773 -351.94196686 306.02621944 -353 306 C-354.07654815 306.09679629 -354.07654815 306.09679629 -355.17484474 306.19554806 C-355.78871733 306.22890035 -356.40258991 306.26225264 -357.0350647 306.2966156 C-357.75266464 306.33717072 -358.47026459 306.37772583 -359.20960999 306.41950989 C-359.9714006 306.45952621 -360.73319122 306.49954254 -361.51806641 306.54077148 C-362.34011063 306.58647278 -363.16215485 306.63217407 -364.0091095 306.67926025 C-365.78231665 306.777616 -367.55559576 306.87468123 -369.32893753 306.97057915 C-372.13709716 307.12302278 -374.94495681 307.28017129 -377.7527771 307.43873596 C-385.73193 307.88892623 -393.7113428 308.33405152 -401.69140625 308.76782227 C-406.58226988 309.03400921 -411.47260908 309.30848953 -416.36271286 309.588274 C-418.22284999 309.69306862 -420.08316749 309.79471157 -421.94365311 309.89312553 C-424.54318195 310.03088322 -427.14191431 310.17917194 -429.74072266 310.32983398 C-430.50656174 310.36782608 -431.27240082 310.40581818 -432.06144714 310.44496155 C-436.80824799 310.73415211 -441.03282516 311.12511237 -444.58203125 314.5078125 C-444.98808594 315.04148437 -445.39414062 315.57515625 -445.8125 316.125 C-446.534375 317.07375 -447.25625 318.0225 -448 319 C-432.85032819 327.21677115 -417.37855585 334.73445412 -401.84332275 342.18641663 C-397.81414217 344.12065487 -393.79845094 346.07946895 -389.79296875 348.0625 C-388.09114832 348.89583842 -386.38932565 349.72917225 -384.6875 350.5625 C-383.94242187 350.93834229 -383.19734375 351.31418457 -382.4296875 351.70141602 C-378.93930738 353.4656924 -378.93930738 353.4656924 -375.12719727 353.90234375 C-371.98964437 352.57141347 -369.91113061 350.27897508 -367.578125 347.87109375 C-367.07327576 347.36199966 -366.56842651 346.85290558 -366.04827881 346.3283844 C-364.44166021 344.7050088 -362.84580178 343.071503 -361.25 341.4375 C-360.16085016 340.3332995 -359.07101395 339.22977555 -357.98046875 338.12695312 C-355.3122924 335.4257471 -352.65371709 332.71540937 -350 330 C-346.53370165 331.48653506 -344.30977964 333.45722351 -341.671875 336.1328125 C-340.87265625 336.93847656 -340.0734375 337.74414062 -339.25 338.57421875 C-338.425 339.41597656 -337.6 340.25773437 -336.75 341.125 C-335.48929688 342.39923828 -335.48929688 342.39923828 -334.203125 343.69921875 C-332.13084317 345.79504923 -330.06337607 347.89540713 -328 350 C-332.96194855 355.99500997 -338.3476624 361.46427037 -343.875 366.9375 C-344.75414062 367.81212891 -345.63328125 368.68675781 -346.5390625 369.58789062 C-348.6904346 371.72757048 -350.84411792 373.86486597 -353 376 C-351.82825855 379.68987326 -350.54731949 383.14352873 -348.78515625 386.58984375 C-348.13546875 387.87169556 -348.13546875 387.87169556 -347.47265625 389.17944336 C-347.00730469 390.08960205 -346.54195313 390.99976074 -346.0625 391.9375 C-340.69348644 402.55568306 -335.52912171 413.26109729 -330.42333984 424.0078125 C-327.89544303 429.32203264 -325.35298464 434.62928932 -322.8125 439.9375 C-321.88144986 441.88408562 -320.95045442 443.83069741 -320.01953125 445.77734375 C-319.62870361 446.59452881 -319.23787598 447.41171387 -318.83520508 448.25366211 C-318.5595874 448.82995361 -318.28396973 449.40624512 -318 450 C-316.85373678 449.02133662 -315.70800212 448.04205413 -314.5625 447.0625 C-313.60537109 446.24458984 -313.60537109 446.24458984 -312.62890625 445.41015625 C-310.28535929 443.56666715 -310.28535929 443.56666715 -309.74134827 440.70335388 C-309.64713844 439.17268028 -309.64713844 439.17268028 -309.55102539 437.61108398 C-309.4774733 436.45313828 -309.4039212 435.29519257 -309.32814026 434.10215759 C-309.25208054 432.82965652 -309.17602081 431.55715546 -309.09765625 430.24609375 C-309.01460274 428.91168217 -308.9311345 427.57729634 -308.84727478 426.24293518 C-308.62528972 422.69292281 -308.40889935 419.14259027 -308.19366455 415.59216309 C-307.98193087 412.11397683 -307.76523918 408.63610094 -307.54882812 405.15820312 C-307.22251856 399.90568734 -306.89924832 394.6529975 -306.57836914 389.40014648 C-306.49668705 388.45752723 -306.49668705 388.45752723 -306.41335481 387.49586517 C-306.02706438 382.62549937 -306.08299424 377.91508349 -306.34160614 373.03510666 C-306.79394591 357.3125017 -305.00764102 346.1773051 -294.02537537 334.44465637 C-290.1698567 330.3857868 -286.15375007 326.51071206 -282.08770883 322.66437638 C-278.88640985 319.60290616 -275.77420101 316.45283969 -272.64958191 313.31349182 C-267.2416601 307.90349647 -261.78243271 302.55040478 -256.28307915 297.23343849 C-248.32085122 289.53474317 -240.4465497 281.75069664 -232.59028793 273.94406851 C-219.82211351 261.26077009 -206.99005882 248.64426691 -194.11401367 236.07055664 C-181.64565265 223.89462173 -169.20337424 211.69310618 -156.79858398 199.45239258 C-155.65103781 198.32006138 -155.65103781 198.32006138 -154.48030888 197.1648548 C-146.86515503 189.64970415 -139.25390426 182.1306035 -131.64304866 174.61110032 C-128.6780869 171.68181667 -125.71291991 168.75274089 -122.7476136 165.82380603 C-121.28383943 164.37797816 -119.82012823 162.93208654 -118.35648096 161.4861302 C-109.07602797 152.31886599 -99.77586326 143.1722402 -90.45252502 134.04859507 C-85.74701514 129.44381209 -81.04802743 124.83239723 -76.35067987 120.21928946 C-72.6495104 116.5857073 -68.93979428 112.96117568 -65.22285094 109.34373479 C-62.95596039 107.13317771 -60.69784454 104.91381604 -58.44200791 102.69198509 C-57.41734083 101.68625156 -56.38917316 100.68406756 -55.35693591 99.68610523 C-37.15294 82.07508604 -21.27981988 55.78309103 -20.625 29.875 C-20.51666685 26.71277299 -20.51666685 26.71277299 -21 24 C-34.47474491 15.01683673 -62.55238232 30.78528437 -74.75 37.6875 Z M-432.83984375 100.15625 C-433.67451172 101.01347656 -434.50917969 101.87070313 -435.36914062 102.75390625 C-436.21669922 103.66011719 -437.06425781 104.56632812 -437.9375 105.5 C-438.81212891 106.40621094 -439.68675781 107.31242187 -440.58789062 108.24609375 C-442.74186784 110.48246354 -444.87783936 112.73348548 -447 115 C-444.95709388 117.04290612 -443.80526002 117.61131247 -441.16357422 118.62207031 C-440.36119324 118.93219559 -439.55881226 119.24232086 -438.7321167 119.56184387 C-437.84856506 119.89721664 -436.96501343 120.23258942 -436.0546875 120.578125 C-434.65733368 121.11617012 -434.65733368 121.11617012 -433.23175049 121.66508484 C-431.19331157 122.44946336 -429.15396031 123.23147388 -427.11383057 124.01144409 C-421.52470195 126.14877364 -415.94257409 128.30427113 -410.359375 130.45703125 C-409.18533112 130.90917496 -408.01128723 131.36131866 -406.80166626 131.8271637 C-393.88628785 136.80507424 -381.00464271 141.8680041 -368.125 146.9375 C-365.78355279 147.85854119 -363.44208139 148.77952089 -361.10058594 149.70043945 C-357.58467714 151.08331825 -354.068798 152.46627208 -350.55303955 153.84953308 C-338.84626048 158.45522616 -327.13559737 163.05099821 -315.42376709 167.64382935 C-311.23736156 169.28560333 -307.05113115 170.92782309 -302.86520386 172.57081604 C-300.94800151 173.32198529 -299.02999505 174.07110607 -297.1111145 174.81797791 C-292.62411054 176.56579337 -288.15333293 178.34119147 -283.70605469 180.18798828 C-282.87661346 180.52673477 -282.04717224 180.86548126 -281.19259644 181.2144928 C-279.64758674 181.84656914 -278.10737111 182.49054972 -276.57327271 183.14866638 C-272.92620955 184.75968516 -272.92620955 184.75968516 -269.11276245 184.3818512 C-266.30228571 182.54366033 -264.02566165 180.28775305 -261.68066406 177.90771484 C-261.16314072 177.39048355 -260.64561737 176.87325226 -260.1124115 176.34034729 C-258.40869711 174.63524329 -256.71217022 172.92317232 -255.015625 171.2109375 C-253.83350593 170.025087 -252.65094355 168.83967826 -251.46795654 167.6546936 C-248.35971272 164.53882362 -245.25752263 161.41699366 -242.15655518 158.29388428 C-238.98951498 155.10636381 -235.81678613 151.9245168 -232.64453125 148.7421875 C-226.42410597 142.50033024 -220.21006463 136.25216515 -214 130 C-217.6012264 127.5991824 -220.87515396 127.18095638 -225.05828857 126.54464722 C-225.88895757 126.41226469 -226.71962656 126.27988217 -227.57546735 126.14348805 C-230.36792255 125.70035303 -233.16193257 125.2679396 -235.95605469 124.83544922 C-237.95506494 124.52051324 -239.95397424 124.20493585 -241.95278931 123.88876343 C-247.38985537 123.03074977 -252.82835301 122.18215035 -258.2671957 121.33548117 C-263.95550075 120.44866745 -269.64261133 119.55425503 -275.32989502 118.66091919 C-284.88578606 117.16114623 -294.44260283 115.66738903 -304 114.17724609 C-315.04776 112.45466561 -326.09407004 110.72302377 -337.13963008 108.98639667 C-347.76148617 107.31656853 -358.38428491 105.65281502 -369.00754547 103.99194717 C-373.52920626 103.28493201 -378.05053701 102.57585757 -382.57161713 101.86513901 C-387.89939423 101.02791569 -393.22797943 100.19603773 -398.5572319 99.36825943 C-400.51222946 99.06373242 -402.46694548 98.75739163 -404.42135239 98.44909668 C-407.09141497 98.02822654 -409.76242513 97.61398201 -412.43377686 97.2013855 C-413.20509406 97.07823939 -413.97641126 96.95509329 -414.77110171 96.82821548 C-424.6982302 95.12028652 -424.6982302 95.12028652 -432.83984375 100.15625 Z M-132.1940918 218.90600586 C-132.73389679 219.42799561 -133.27370178 219.94998535 -133.8298645 220.48779297 C-138.81156004 225.31492759 -143.76014416 230.17618403 -148.69908428 235.047019 C-152.01991436 238.32163241 -155.3504944 241.58472447 -158.70727539 244.82250977 C-161.94879959 247.94952424 -165.1625973 251.10267356 -168.35868263 254.27609444 C-169.58171189 255.48132397 -170.81425044 256.67698225 -172.05624962 257.86265373 C-178.74913286 263.74523612 -178.74913286 263.74523612 -182.40847778 271.45884705 C-181.92913753 273.90517033 -181.12379026 275.77846107 -180 278 C-179.43027466 279.56315106 -178.86869777 281.12929123 -178.31445312 282.69799805 C-177.64361149 284.38865623 -176.96549493 286.07644059 -176.28125 287.76171875 C-175.91152573 288.68871078 -175.54180145 289.61570282 -175.16087341 290.57078552 C-174.36338753 292.56817644 -173.56282965 294.56434306 -172.75949097 296.55938721 C-171.03362674 300.84579983 -169.32290351 305.13820634 -167.61106873 309.43023682 C-166.72265332 311.65723082 -165.83345477 313.88391256 -164.9434967 316.11029053 C-160.5543482 327.09425271 -156.23901432 338.10648638 -151.9375 349.125 C-151.19791144 351.01768926 -150.45824656 352.91034871 -149.71850586 354.80297852 C-148.23345714 358.60285968 -146.74888285 362.4029257 -145.26464844 366.203125 C-141.36809396 376.17871067 -137.46502703 386.15174973 -133.5625 396.125 C-133.18586212 397.08764771 -132.80922424 398.05029541 -132.4211731 399.04211426 C-126.294802 414.70026252 -120.15642102 430.35364072 -114 446 C-108.65884754 446 -105.43042788 441.24052845 -101.75 437.6875 C-100.89664063 436.92115234 -100.04328125 436.15480469 -99.1640625 435.36523438 C-98.36226563 434.58857422 -97.56046875 433.81191406 -96.734375 433.01171875 C-95.62400879 431.96697388 -95.62400879 431.96697388 -94.49121094 430.90112305 C-90.10201981 422.36203364 -95.57209462 406.41260814 -97.05102539 397.11645508 C-97.36674774 395.11490654 -97.68215364 393.11330806 -97.99726868 391.11166382 C-98.84934838 385.70495269 -99.70582833 380.29894697 -100.5631249 374.89306092 C-101.45989567 369.23336897 -102.35258347 363.5730331 -103.24571228 357.9127655 C-104.93568774 347.20642921 -106.62931227 336.50067354 -108.32426208 325.79512376 C-110.25453557 313.6020784 -112.18071962 301.40838814 -114.1065675 289.21464312 C-118.06650847 264.14237731 -122.03156131 239.07092209 -126 214 C-128.25625929 214 -130.59152074 217.34611978 -132.1940918 218.90600586 Z " fill="#5FCE82" transform="translate(502,9)"/>
</svg>
